<?xml version="1.0" encoding="UTF-8"?>
<svg xmlns="http://www.w3.org/2000/svg" width="79" height="88" viewBox="0 0 79 88" fill="none">
  <g clip-path="url(#clip0_1106_4306)">
    <path fill-rule="evenodd" clip-rule="evenodd" d="M6.50741 56.5689V40.7387C6.50741 40.7387 5.89181 40.7562 5.29367 40.6622C3.1849 40.3652 1.6066 38.6308 1.60223 36.4901C1.58695 34.5307 2.87055 33.0169 4.71736 32.8946C5.01861 32.8574 5.50542 32.9317 5.50542 32.9317C5.50542 32.9317 5.40282 32.3747 5.28057 32.0536C4.74355 30.6381 3.85071 29.3493 3.0561 28.0846C1.73539 25.9745 0.510735 23.8622 0.133078 21.3501C-0.168175 19.2946 -0.0284636 17.0796 1.3883 15.3911C1.6961 15.0635 2.24185 14.6681 2.34445 14.5982C2.34445 14.5982 2.0039 13.8074 1.83144 13.0779C1.17655 9.82313 3.5953 6.36307 7.25836 5.72086C9.84302 5.25996 12.0675 5.89561 14.2417 7.19314C14.5626 7.3941 15.1935 7.75452 15.1935 7.75452C15.1935 7.75452 15.3223 7.12323 15.3922 6.88077C16.6059 3.14548 19.9983 0.803818 23.5849 0.187822C25.9513 -0.275267 28.4465 0.220588 30.8783 0.58538C33.404 0.958909 35.849 1.41326 38.3682 1.68412C40.1779 1.81956 42.267 1.38049 44.1596 1.13366C47.1918 0.751393 50.1607 -0.0415377 53.2387 0.0152562C57.7357 0.0873408 61.975 3.09742 63.0185 6.92882C63.0709 7.15382 63.2062 7.76981 63.2062 7.76981C63.2062 7.76981 63.7258 7.49239 64.003 7.32857C65.3412 6.51379 66.9129 5.76455 68.631 5.6029C71.9535 5.27962 75.5707 6.85674 76.553 10.6991C76.7822 11.776 76.7582 12.8288 76.3849 13.8533C76.3216 14.0412 76.0902 14.6004 76.0902 14.6004C76.0902 14.6004 76.398 14.7992 76.5247 14.8996C78.2623 16.4134 78.6465 18.814 78.3278 21.064C78.0004 23.3008 77.0639 25.2733 75.9025 27.1802C74.9791 28.694 73.9007 30.1597 73.2371 31.8373C73.0886 32.2109 72.9336 32.9164 72.9336 32.9164C72.9336 32.9164 73.5121 32.8749 73.8636 32.9077C75.0882 33.0366 76.3959 33.9627 76.7168 35.5726C77.0377 37.1476 76.4875 38.9366 75.0511 39.8999C74.3962 40.3433 73.6147 40.6622 72.8245 40.7212C72.5232 40.7387 72.0539 40.7715 72.0539 40.7715C72.0539 40.7715 72.0233 41.2476 72.0299 41.5207C72.0801 42.8772 72.0495 44.2621 72.0495 45.6273C72.0495 53.7991 72.0495 61.9534 72.0299 70.1274C72.0233 72.22 71.7286 74.1903 70.9908 76.1584C69.6439 79.7168 66.9195 81.7483 63.0447 81.733C57.4846 81.7155 52.0468 82.2201 46.729 83.9436C44.2339 84.7605 41.9242 85.9357 39.7238 87.6767C39.5186 87.8318 39.344 88 39.344 88C39.344 88 39.082 87.8274 38.9292 87.7029C34.8754 84.7321 30.2191 83.4259 25.3946 82.6067C22.0481 82.0301 18.6688 81.6937 15.2808 81.757C11.9867 81.8225 9.58106 80.3219 8.07916 77.314C7.06626 75.2738 6.60564 72.9474 6.50741 70.7805C6.4965 66.0447 6.50304 61.309 6.50304 56.5711" fill="white"></path>
    <path fill-rule="evenodd" clip-rule="evenodd" d="M70.1918 38.4517V70.4157C70.1394 73.9348 69.2073 80.1078 63.239 80.1078C57.2707 80.1078 46.275 80.6845 39.2785 85.927C31.7624 80.6867 19.243 80.1078 14.5932 80.1078C9.94345 80.1078 8.37825 74.3564 8.37825 70.6516V38.0039C8.02461 38.3971 7.60111 38.7029 7.05754 38.8754C5.9333 39.1856 4.62132 38.9475 3.89439 38.0476C3.15654 37.0908 3.27878 35.3433 4.49034 35.0855C5.10595 34.9501 5.73683 35.0855 6.19526 36.3153C7.38935 35.2537 7.58146 34.2773 7.28021 32.615C6.95931 31.0335 6.09921 29.6093 5.25876 28.2462C3.6106 25.6075 1.63499 22.7219 1.84019 19.4388C1.96244 17.2217 3.05175 15.8215 5.30896 15.9088C3.94896 14.1897 2.91204 12.3985 4.0341 10.2579C5.40502 7.63878 8.79083 7.12982 11.2729 8.08658C12.2487 8.47321 13.1459 8.9647 14.0235 9.50861C14.519 9.82753 16.8526 11.0617 17.1801 11.1928C16.0187 6.45266 19.494 3.49282 22.6375 2.49237C25.1654 1.69071 27.7676 2.2084 30.3348 2.60159C32.3977 2.92707 34.5217 3.28749 36.6502 3.5518C37.3749 3.64354 38.1062 3.74621 38.8244 3.77679H39.5688C40.3001 3.74621 41.062 3.64354 41.7431 3.5518C43.8649 3.28749 45.989 2.92707 48.0781 2.60159C50.6191 2.2084 53.2278 1.69071 55.7622 2.49237C58.9057 3.49501 62.4073 6.45484 61.2197 11.1928C61.5668 11.0595 63.8939 9.82753 64.4265 9.50861C65.2932 8.9647 66.1904 8.47321 67.1334 8.08658C69.6133 7.12982 73.0079 7.63878 74.3941 10.2579C75.5292 12.3985 74.4574 14.1919 73.1061 15.9088C75.3546 15.8237 76.4723 17.2217 76.5923 19.4388C76.767 22.7219 74.8154 25.6075 73.1498 28.2462C72.3224 29.6093 71.4558 31.0335 71.148 32.615C70.8009 34.2795 71.0323 35.2559 72.2395 36.3153C72.6739 35.0855 73.3091 34.9501 73.9313 35.0855C75.1319 35.3411 75.2607 37.0908 74.5294 38.0476C73.7981 38.9453 72.4774 39.1856 71.3859 38.8754C70.9056 38.7203 70.5127 38.4844 70.1874 38.1721V38.4495L70.1918 38.4517ZM8.2953 20.3126C8.077 17.403 6.79558 16.9355 5.97478 17.2479C5.12996 17.5668 5.04482 19.382 5.42903 20.5397C5.76303 21.5358 6.93529 23.6197 8.08355 25.5835C8.15995 25.7124 8.23854 25.8412 8.30184 25.9767L8.2953 20.3147V20.3126ZM21.5002 15.7472C20.1795 15.3584 19.0815 14.6616 17.3962 13.5628C16.4859 12.9927 11.9758 9.90835 10.3015 10.3343C8.50705 10.8018 8.86069 12.3396 9.00695 12.8376C9.41517 14.1701 11.2314 14.7642 12.5718 15.0482C13.3293 15.1836 14.0606 15.3322 14.8617 15.4545C16.4837 15.6729 17.6079 15.7297 19.2102 15.7843C19.935 15.7974 20.6336 15.8171 21.3277 15.8302L21.9368 15.8237L21.5024 15.745L21.5002 15.7472ZM50.5383 15.8193C55.2907 15.4261 58.1439 12.0294 56.8363 8.23511C55.7666 5.12455 51.9813 4.22022 49.1783 4.23114C48.0104 4.27701 43.5419 4.93888 39.6234 5.33862C39.3418 5.35173 39.058 5.35173 38.8091 5.33862C34.9038 4.93888 30.409 4.27701 29.2476 4.23114C26.4381 4.22022 22.6419 5.12455 21.5832 8.23511C20.269 12.0687 23.2051 15.5091 28.0273 15.8258L50.5383 15.8193ZM70.146 25.9526C70.2158 25.8172 70.2879 25.6949 70.3643 25.566C71.5125 23.5935 72.6782 21.5227 73.0253 20.5157C73.403 19.358 73.32 17.5515 72.473 17.2282C71.6653 16.9137 70.3686 17.3899 70.1525 20.2885L70.146 25.9526ZM56.511 15.8062L57.1266 15.8215C57.8121 15.8018 58.5128 15.7734 59.2376 15.7669C60.8552 15.7079 61.9685 15.6598 63.5926 15.4392C64.4025 15.3103 65.1185 15.1683 65.8826 15.0395C67.2295 14.7489 69.0392 14.1592 69.443 12.8223C69.598 12.3177 69.9429 10.7865 68.1551 10.3212C66.4873 9.89088 61.9707 12.9752 61.056 13.541C59.3751 14.6397 58.2661 15.3453 56.9585 15.7319L56.5154 15.8084L56.511 15.8062Z" fill="#0A51A1"></path>
    <path fill-rule="evenodd" clip-rule="evenodd" d="M11.4497 49.2949H35.9167L35.2509 51.9402L37.7089 51.239V81.7352C33.8843 78.2642 17.8764 76.4949 14.8639 76.4949C11.8514 76.4949 11.4519 71.7548 11.4519 70.1558V49.2971L11.4497 49.2949Z" fill="white"></path>
    <path d="M66.5529 49.8651V70.1536C66.5529 70.7456 66.4699 75.94 63.6997 75.94C61.4796 75.94 46.6331 77.3664 41.3677 80.6408V52.0298L43.1316 52.897L44.1139 53.3688L43.9284 52.2941L43.4809 49.8651H66.5551H66.5529ZM67.1052 49.2949H42.8303L43.3826 52.4033L40.8176 51.1429V81.7352C44.6444 78.2642 60.685 76.4949 63.6997 76.4949C66.7144 76.4949 67.1052 71.7548 67.1052 70.1558V49.2971V49.2949Z" fill="white"></path>
    <path d="M37.1632 19.6092V43.4058L35.4255 43.0367L34.5676 42.8532L34.7837 43.7095L35.2334 45.5662H12.0086V19.6092H37.1632ZM37.7089 19.05H11.4563V46.1188H35.9451L35.3208 43.5784L37.7089 44.0917V19.0478V19.05Z" fill="white"></path>
    <path fill-rule="evenodd" clip-rule="evenodd" d="M40.8176 19.0478H67.1052V46.1167H42.8434L43.4329 43.5522L40.8176 44.2556V19.0478Z" fill="#FF0001"></path>
    <path fill-rule="evenodd" clip-rule="evenodd" d="M51.63 66.036C49.829 64.3235 53.1166 62.6153 51.7522 56.4532C51.9749 56.5689 52.5708 56.9927 53.086 58.0237C53.5466 58.9652 53.5466 60.6362 53.3545 62.0386C53.3349 62.0976 54.35 60.6668 53.5968 58.1876C53.5663 58.0827 54.2212 58.6594 54.494 59.2863C54.6294 59.5244 54.6687 59.6795 54.7254 59.9329C54.7254 59.9329 53.4178 62.3313 52.8721 63.1723C52.3853 63.8582 51.8657 64.7997 52.7564 66.1409C52.7564 66.1409 51.8985 66.0382 51.6278 66.0382" fill="white"></path>
    <path fill-rule="evenodd" clip-rule="evenodd" d="M61.7371 59.9307C61.8528 62.576 59.5236 64.6118 57.62 65.597C57.7401 65.5293 60.089 63.1068 58.7224 60.1338C58.6831 60.0683 58.7748 63.2029 56.7271 64.0635C56.6682 64.0745 58.7421 62.1347 58.312 59.2863C58.1963 58.489 57.6462 57.6393 57.6462 57.7922C57.7619 61.5755 56.1705 62.0037 56.2098 61.9578C57.1572 60.5161 57.3449 58.6157 57.1506 57.4165C56.9193 56.1255 56.3364 55.4658 56.1312 55.2583C55.7273 62.9954 51.0448 63.5415 53.4177 66.403C53.826 67.1675 49.0146 64.5681 48.4209 69.5573C48.4209 69.5726 48.4165 69.5857 48.4165 69.601C48.4274 69.5966 48.4405 69.59 48.4514 69.5857C49.1936 69.3017 51.2937 69.8806 52.0119 70.2563C53.66 71.1322 55.6859 71.4336 57.4694 70.8832C59.7462 70.241 60.447 68.3799 61.1324 66.4402C62.5405 62.4493 64.0227 62.0736 64.2519 62.233C63.573 61.6476 62.7173 61.0207 61.7349 59.9329M50.3506 68.2182C50.2284 68.2182 50.0952 68.1199 50.0952 67.9561C50.0952 67.8403 50.2284 67.7136 50.3506 67.7136C50.5122 67.7136 50.6191 67.8403 50.6191 67.9561C50.6191 68.1199 50.51 68.2182 50.3506 68.2182Z" fill="white"></path>
    <path fill-rule="evenodd" clip-rule="evenodd" d="M47.6852 68.6507C47.6852 68.6507 47.1132 67.9168 47.9275 67.3139C47.9275 67.3139 48.4732 68.1483 47.6852 68.6507Z" fill="white"></path>
    <path fill-rule="evenodd" clip-rule="evenodd" d="M47.5064 69.1947C47.5064 69.1947 47.4933 70.1536 46.5 70.0793C46.5 70.0793 46.5895 69.068 47.5064 69.1947Z" fill="white"></path>
    <path fill-rule="evenodd" clip-rule="evenodd" d="M46.5893 67.9539C46.5893 67.9539 45.7554 67.5171 46.2684 66.6477C46.2684 66.6477 47.1067 67.2069 46.5893 67.9539Z" fill="white"></path>
    <path fill-rule="evenodd" clip-rule="evenodd" d="M46.2183 68.535C46.2183 68.535 45.8974 69.4065 44.9937 68.9893C44.9937 68.9893 45.4303 68.0697 46.2183 68.535Z" fill="white"></path>
    <path fill-rule="evenodd" clip-rule="evenodd" d="M45.2557 67.836C45.2557 67.836 44.4851 68.3384 43.9983 67.4319C43.9983 67.4319 44.878 66.9666 45.2557 67.836Z" fill="white"></path>
    <path fill-rule="evenodd" clip-rule="evenodd" d="M45.3582 67.9168C45.3582 67.9168 47.7114 68.0304 49.9315 71.7635L50.0538 71.6062C50.0538 71.6062 48.231 68.334 45.3582 67.9168Z" fill="white"></path>
    <path fill-rule="evenodd" clip-rule="evenodd" d="M30.5248 69.1051H25.421V60.6887H29.3569V58.6135H25.421V54.0656H23.4388V58.6135H19.2584V60.6887H23.4388V69.1051H18.0774V72.2506H19.2387L19.2584 72.22V72.2506H19.2387L18.4441 73.4542H30.1755L29.3787 72.2506H30.527V69.1051H30.5248ZM20.0508 72.7989L20.4612 71.9688V69.7779H28.1453V71.9688L28.5623 72.7989H20.0508Z" fill="#0A51A1"></path>
    <path fill-rule="evenodd" clip-rule="evenodd" d="M29.3306 68.535C29.3306 68.1898 29.5925 67.9168 29.92 67.9168C30.2474 67.9168 30.5247 68.1877 30.5247 68.535C30.5247 68.8583 30.2605 69.1357 29.92 69.1357C29.5794 69.1357 29.3306 68.8583 29.3306 68.535Z" fill="#0A51A1"></path>
    <path fill-rule="evenodd" clip-rule="evenodd" d="M18.0752 68.535C18.0752 68.1898 18.3066 67.9168 18.6384 67.9168C18.9702 67.9168 19.254 68.1877 19.254 68.535C19.254 68.8583 18.979 69.1357 18.6384 69.1357C18.2979 69.1357 18.0752 68.8583 18.0752 68.535Z" fill="#0A51A1"></path>
    <path fill-rule="evenodd" clip-rule="evenodd" d="M19.2563 72.22V72.2509H19.2366L19.2563 72.22Z" fill="#0A51A1"></path>
    <path fill-rule="evenodd" clip-rule="evenodd" d="M27.7391 72.0737V70.1798H20.8715V72.0737L20.7034 72.3795H27.892L27.737 72.0737H27.7391ZM27.3178 71.971H21.2578V70.6058H27.3178V71.971Z" fill="#0A51A1"></path>
    <path fill-rule="evenodd" clip-rule="evenodd" d="M27.7391 72.0737V70.1798H20.8715V72.0737L20.7034 72.3795H27.892L27.737 72.0737H27.7391ZM27.3178 71.971H21.2578V70.6058H27.3178V71.971Z" fill="white"></path>
    <path fill-rule="evenodd" clip-rule="evenodd" d="M27.7391 72.0737V70.1798H20.8715V72.0737L20.7034 72.3795H27.892L27.737 72.0737H27.7391ZM27.3178 71.971H21.2578V70.6058H27.3178V71.971Z" fill="#0A51A1"></path>
    <path fill-rule="evenodd" clip-rule="evenodd" d="M19.2563 72.22V72.2509H19.2366L19.2563 72.22Z" fill="#0A51A1"></path>
    <path d="M28.3286 7.45092C28.7281 7.38102 29.3066 7.3286 30.1077 7.3286C30.9089 7.3286 31.4918 7.48369 31.8847 7.80042C32.2493 8.09095 32.4872 8.59554 32.4872 9.17003C32.4872 9.77729 32.306 10.2622 31.9611 10.5942C31.5201 11.0158 30.8456 11.2212 30.0837 11.2212C29.9025 11.2212 29.7497 11.2081 29.6297 11.1884V13.3291H28.333V7.45092H28.3286ZM29.6253 10.1552C29.7476 10.1792 29.8742 10.188 30.0597 10.188C30.7517 10.188 31.1883 9.82316 31.1883 9.22464C31.1883 8.67418 30.8281 8.35089 30.1689 8.35089C29.8982 8.35089 29.7126 8.36836 29.6231 8.39676V10.1552H29.6253Z" fill="#0A51A1"></path>
    <path d="M34.633 7.36574H33.3254V13.3291H34.633V7.36574Z" fill="#0A51A1"></path>
    <path d="M35.7705 7.36574H37.0781V12.1976H39.3812V13.3313H35.7705V7.36574Z" fill="#0A51A1"></path>
    <path d="M41.5466 11.7935L41.1384 13.3291H39.7827L41.5553 7.36574H43.2602L45.0699 13.3291H43.6597L43.2166 11.7935H41.5488H41.5466ZM43.0092 10.7908L42.6555 9.51735C42.5529 9.17004 42.4569 8.71569 42.3674 8.36837H42.3434C42.267 8.72879 42.1687 9.17004 42.0814 9.51735L41.7343 10.7908H43.0092Z" fill="#0A51A1"></path>
    <path d="M45.834 7.45092C46.2553 7.38102 46.8709 7.3286 47.5782 7.3286C48.4361 7.3286 49.0408 7.45092 49.4577 7.80042C49.8048 8.08003 49.9904 8.49724 49.9904 9.05644C49.9904 9.79913 49.4687 10.3168 48.9709 10.5025V10.5331C49.3748 10.6991 49.5996 11.0836 49.7394 11.6406C49.9336 12.3134 50.0995 13.0954 50.2021 13.3291H48.8727C48.7832 13.1522 48.6369 12.676 48.4689 11.9442C48.3008 11.1884 48.0584 10.9896 47.5127 10.9853H47.135V13.3269H45.834V7.44874V7.45092ZM47.135 10.011H47.648C48.2964 10.011 48.6872 9.65933 48.6872 9.15037C48.6872 8.61301 48.3226 8.33341 47.7245 8.33341C47.4036 8.33341 47.2245 8.3487 47.135 8.37055V10.011Z" fill="#0A51A1"></path>
    <path d="M62.5405 40.4875C62.4095 40.9724 62.0864 41.5469 61.4883 41.7501C60.3204 42.1826 56.415 41.9751 53.8937 42.0013C53.182 42.0209 49.0256 42.0013 48.3008 41.8855C48.2004 41.8768 48.052 41.8593 47.8992 41.8265C47.9494 41.8222 48.0018 41.8134 48.0498 41.8003C48.0804 41.7938 48.1109 41.785 48.1415 41.7785C48.2725 41.7566 48.3925 41.7042 48.506 41.6321C48.7767 41.4596 48.9907 41.1756 49.1413 40.92C49.2395 40.7649 49.3247 40.6098 49.4033 40.4657C49.4207 40.4307 56.3299 40.4591 60.1567 40.4766C61.3508 40.4831 62.2458 40.4875 62.5383 40.4875" fill="white"></path>
    <path d="M46.179 23.7792C46.179 23.7792 46.8732 24.6791 47.2574 26.1602L45.3451 26.147C45.3451 26.147 45.1857 24.3406 46.179 23.7792Z" fill="white"></path>
    <path d="M53.5487 35.0528C53.5858 35.127 53.6055 35.2231 53.5989 35.352C53.5989 35.4831 53.5749 35.5792 53.5421 35.6513C53.5116 35.7343 53.4526 35.7845 53.3806 35.826C53.3107 35.8501 53.2147 35.8719 53.0859 35.8719L52.9309 35.8654L52.9571 34.83C53.0008 34.8234 53.0663 34.8234 53.1492 34.83C53.2518 34.83 53.3348 34.8562 53.4046 34.8933C53.4745 34.9195 53.5138 34.9763 53.5465 35.0528" fill="white"></path>
    <path d="M57.3449 36.4333C57.2532 36.5076 57.2052 36.6015 57.2052 36.7391C57.2052 36.8025 57.2161 36.8614 57.2685 36.9008C57.299 36.9444 57.3558 36.9707 57.4344 36.9707C57.4846 36.9707 57.537 36.9488 57.5894 36.9248C57.6461 36.9008 57.6789 36.8549 57.7182 36.8025C57.7356 36.7566 57.7553 36.6998 57.7553 36.6474L57.7618 36.3372C57.5697 36.3372 57.4344 36.3765 57.3449 36.4355M57.3449 36.4355C57.2532 36.5098 57.2052 36.6037 57.2052 36.7413C57.2052 36.8046 57.2161 36.8636 57.2685 36.9029C57.299 36.9466 57.3558 36.9728 57.4344 36.9728C57.4846 36.9728 57.537 36.951 57.5894 36.927C57.6461 36.9029 57.6789 36.8571 57.7182 36.8046C57.7356 36.7588 57.7553 36.702 57.7553 36.6496L57.7618 36.3394C57.5697 36.3394 57.4344 36.3787 57.3449 36.4377M54.4524 32.2655C54.4524 32.1454 54.4328 32.0427 54.3847 31.9837C54.3389 31.9247 54.2756 31.8985 54.1839 31.8985C54.1206 31.8985 54.0682 31.9247 54.0093 31.9706C53.9787 32.0165 53.9394 32.0886 53.9154 32.1628C53.8957 32.2611 53.8826 32.3638 53.8826 32.4927C53.8892 32.6871 53.9154 32.8465 53.9525 32.9601C54.0049 33.0541 54.0682 33.1021 54.1708 33.1021C54.2101 33.0956 54.2603 33.0825 54.2996 33.0628C54.352 33.0431 54.3847 33.0038 54.4153 32.9601C54.4393 32.9143 54.4655 32.8553 54.4655 32.7985L54.4524 32.2677V32.2655ZM57.3449 36.4377C57.2532 36.5119 57.2052 36.6059 57.2052 36.7435C57.2052 36.8068 57.2161 36.8658 57.2685 36.9051C57.299 36.9488 57.3558 36.975 57.4344 36.975C57.4846 36.975 57.537 36.9532 57.5894 36.9292C57.6461 36.9051 57.6789 36.8593 57.7182 36.8068C57.7356 36.761 57.7553 36.7042 57.7553 36.6517L57.7618 36.3416C57.5697 36.3416 57.4344 36.3809 57.3449 36.4399M57.3449 36.4399C57.2532 36.5141 57.2052 36.6081 57.2052 36.7457C57.2052 36.809 57.2161 36.868 57.2685 36.9073C57.299 36.951 57.3558 36.9772 57.4344 36.9772C57.4846 36.9772 57.537 36.9554 57.5894 36.9313C57.6461 36.9073 57.6789 36.8614 57.7182 36.809C57.7356 36.7631 57.7553 36.7063 57.7553 36.6539L57.7618 36.3437C57.5697 36.3437 57.4344 36.3831 57.3449 36.442M54.4524 32.2699C54.4524 32.1497 54.4328 32.0471 54.3847 31.9881C54.3389 31.9291 54.2756 31.9029 54.1839 31.9029C54.1206 31.9029 54.0682 31.9291 54.0093 31.975C53.9787 32.0208 53.9394 32.0929 53.9154 32.1672C53.8957 32.2655 53.8826 32.3682 53.8826 32.497C53.8892 32.6915 53.9154 32.8509 53.9525 32.9645C54.0049 33.0584 54.0682 33.1065 54.1708 33.1065C54.2101 33.0999 54.2603 33.0868 54.2996 33.0672C54.352 33.0475 54.3847 33.0082 54.4153 32.9645C54.4393 32.9186 54.4655 32.8597 54.4655 32.8029L54.4524 32.2721V32.2699ZM54.4524 32.2699C54.4524 32.1497 54.4328 32.0471 54.3847 31.9881C54.3389 31.9291 54.2756 31.9029 54.1839 31.9029C54.1206 31.9029 54.0682 31.9291 54.0093 31.975C53.9787 32.0208 53.9394 32.0929 53.9154 32.1672C53.8957 32.2655 53.8826 32.3682 53.8826 32.497C53.8892 32.6915 53.9154 32.8509 53.9525 32.9645C54.0049 33.0584 54.0682 33.1065 54.1708 33.1065C54.2101 33.0999 54.2603 33.0868 54.2996 33.0672C54.352 33.0475 54.3847 33.0082 54.4153 32.9645C54.4393 32.9186 54.4655 32.8597 54.4655 32.8029L54.4524 32.2721V32.2699ZM56.2294 31.9903C56.1966 31.9138 56.1311 31.8745 56.0504 31.8745C55.9696 31.8745 55.9085 31.9138 55.8582 31.9925C55.819 32.0755 55.7797 32.2043 55.7797 32.3594L56.3079 32.342C56.2948 32.1869 56.2817 32.0667 56.2315 31.9881M57.3471 36.4399C57.2554 36.5141 57.2073 36.6081 57.2073 36.7457C57.2073 36.809 57.2183 36.868 57.2706 36.9073C57.3012 36.951 57.358 36.9772 57.4365 36.9772C57.4868 36.9772 57.5392 36.9554 57.5915 36.9313C57.6483 36.9073 57.681 36.8614 57.7203 36.809C57.7378 36.7631 57.7574 36.7063 57.7574 36.6539L57.764 36.3437C57.5719 36.3437 57.4366 36.3831 57.3471 36.442M57.3471 36.442C57.2554 36.5163 57.2073 36.6102 57.2073 36.7478C57.2073 36.8112 57.2183 36.8702 57.2706 36.9095C57.3012 36.9532 57.358 36.9794 57.4365 36.9794C57.4868 36.9794 57.5392 36.9576 57.5915 36.9335C57.6483 36.9095 57.681 36.8636 57.7203 36.8112C57.7378 36.7653 57.7574 36.7085 57.7574 36.6561L57.764 36.3459C57.5719 36.3459 57.4366 36.3852 57.3471 36.4442M56.2315 31.9925C56.1988 31.916 56.1333 31.8767 56.0525 31.8767C55.9718 31.8767 55.9106 31.916 55.8604 31.9946C55.8211 32.0776 55.7818 32.2065 55.7818 32.3616L56.3101 32.3441C56.297 32.189 56.2839 32.0689 56.2337 31.9903M54.4568 32.2699C54.4568 32.1497 54.4371 32.0471 54.3891 31.9881C54.3433 31.9291 54.2799 31.9029 54.1883 31.9029C54.125 31.9029 54.0726 31.9291 54.0136 31.975C53.9831 32.0208 53.9438 32.0929 53.9198 32.1672C53.9001 32.2655 53.887 32.3682 53.887 32.497C53.8936 32.6915 53.9198 32.8509 53.9569 32.9645C54.0093 33.0584 54.0726 33.1065 54.1752 33.1065C54.2145 33.0999 54.2647 33.0868 54.304 33.0672C54.3563 33.0475 54.3891 33.0082 54.4197 32.9645C54.4437 32.9186 54.4699 32.8597 54.4699 32.8029L54.4568 32.2721V32.2699ZM54.4568 32.2699C54.4568 32.1497 54.4371 32.0471 54.3891 31.9881C54.3433 31.9291 54.2799 31.9029 54.1883 31.9029C54.125 31.9029 54.0726 31.9291 54.0136 31.975C53.9831 32.0208 53.9438 32.0929 53.9198 32.1672C53.9001 32.2655 53.887 32.3682 53.887 32.497C53.8936 32.6915 53.9198 32.8509 53.9569 32.9645C54.0093 33.0584 54.0726 33.1065 54.1752 33.1065C54.2145 33.0999 54.2647 33.0868 54.304 33.0672C54.3563 33.0475 54.3891 33.0082 54.4197 32.9645C54.4437 32.9186 54.4699 32.8597 54.4699 32.8029L54.4568 32.2721V32.2699ZM56.2337 31.9903C56.201 31.9138 56.1355 31.8745 56.0547 31.8745C55.9739 31.8745 55.9128 31.9138 55.8626 31.9925C55.8233 32.0755 55.784 32.2043 55.784 32.3594L56.3123 32.342C56.2992 32.1869 56.2861 32.0667 56.2359 31.9881M57.3514 36.4399C57.2597 36.5141 57.2117 36.6081 57.2117 36.7457C57.2117 36.809 57.2226 36.868 57.275 36.9073C57.3056 36.951 57.3623 36.9772 57.4409 36.9772C57.4911 36.9772 57.5435 36.9554 57.5959 36.9313C57.6527 36.9073 57.6854 36.8614 57.7247 36.809C57.7422 36.7631 57.7618 36.7063 57.7618 36.6539L57.7684 36.3437C57.5763 36.3437 57.4409 36.3831 57.3514 36.442M57.3514 36.442C57.2597 36.5163 57.2117 36.6102 57.2117 36.7478C57.2117 36.8112 57.2226 36.8702 57.275 36.9095C57.3056 36.9532 57.3623 36.9794 57.4409 36.9794C57.4911 36.9794 57.5435 36.9576 57.5959 36.9335C57.6527 36.9095 57.6854 36.8636 57.7247 36.8112C57.7422 36.7653 57.7618 36.7085 57.7618 36.6561L57.7684 36.3459C57.5763 36.3459 57.4409 36.3852 57.3514 36.4442M56.2359 31.9925C56.2032 31.916 56.1377 31.8767 56.0569 31.8767C55.9761 31.8767 55.915 31.916 55.8648 31.9946C55.8255 32.0776 55.7862 32.2065 55.7862 32.3616L56.3145 32.3441C56.3014 32.189 56.2883 32.0689 56.2381 31.9903M54.4611 32.2699C54.4611 32.1497 54.4415 32.0471 54.3935 31.9881C54.3476 31.9291 54.2843 31.9029 54.1926 31.9029C54.1293 31.9029 54.0769 31.9291 54.018 31.975C53.9874 32.0208 53.9481 32.0929 53.9241 32.1672C53.9045 32.2655 53.8914 32.3682 53.8914 32.497C53.8979 32.6915 53.9241 32.8509 53.9612 32.9645C54.0136 33.0584 54.0769 33.1065 54.1795 33.1065C54.2188 33.0999 54.269 33.0868 54.3083 33.0672C54.3607 33.0475 54.3935 33.0082 54.424 32.9645C54.448 32.9186 54.4742 32.8597 54.4742 32.8029L54.4611 32.2721V32.2699ZM53.6862 28.9037C53.6098 28.9627 53.5596 29.0501 53.5596 29.1593C53.5596 29.2161 53.5836 29.2729 53.6229 29.3035C53.66 29.3297 53.7058 29.3537 53.7691 29.3537C53.815 29.3537 53.8652 29.3297 53.911 29.31C53.9481 29.2838 53.9874 29.2511 54.0136 29.2052C54.0333 29.1593 54.0398 29.1091 54.0398 29.0676V28.8076C53.8783 28.8185 53.756 28.8426 53.6862 28.9016M54.4611 32.2677C54.4611 32.1475 54.4415 32.0449 54.3935 31.9859C54.3476 31.9269 54.2843 31.9007 54.1926 31.9007C54.1293 31.9007 54.0769 31.9269 54.018 31.9728C53.9874 32.0187 53.9481 32.0907 53.9241 32.165C53.9045 32.2633 53.8914 32.366 53.8914 32.4949C53.8979 32.6893 53.9241 32.8487 53.9612 32.9623C54.0136 33.0562 54.0769 33.1043 54.1795 33.1043C54.2188 33.0977 54.269 33.0846 54.3083 33.065C54.3607 33.0453 54.3935 33.006 54.424 32.9623C54.448 32.9164 54.4742 32.8575 54.4742 32.8007L54.4611 32.2699V32.2677ZM56.2381 31.9881C56.2053 31.9116 56.1399 31.8723 56.0591 31.8723C55.9783 31.8723 55.9172 31.9116 55.867 31.9903C55.8277 32.0733 55.7884 32.2022 55.7884 32.3572L56.3167 32.3398C56.3036 32.1847 56.2905 32.0645 56.2403 31.9859M57.3558 36.4377C57.2641 36.5119 57.2161 36.6059 57.2161 36.7435C57.2161 36.8068 57.227 36.8658 57.2794 36.9051C57.3099 36.9488 57.3667 36.975 57.4453 36.975C57.4955 36.975 57.5479 36.9532 57.6003 36.9292C57.657 36.9051 57.6898 36.8593 57.7291 36.8068C57.7465 36.761 57.7662 36.7042 57.7662 36.6517L57.7727 36.3416C57.5806 36.3416 57.4453 36.3809 57.3558 36.4399M57.3558 36.4399C57.2641 36.5141 57.2161 36.6081 57.2161 36.7457C57.2161 36.809 57.227 36.868 57.2794 36.9073C57.3099 36.951 57.3667 36.9772 57.4453 36.9772C57.4955 36.9772 57.5479 36.9554 57.6003 36.9313C57.657 36.9073 57.6898 36.8614 57.7291 36.809C57.7465 36.7631 57.7662 36.7063 57.7662 36.6539L57.7727 36.3437C57.5806 36.3437 57.4453 36.3831 57.3558 36.442M56.2403 31.9903C56.2075 31.9138 56.142 31.8745 56.0613 31.8745C55.9805 31.8745 55.9194 31.9138 55.8692 31.9925C55.8299 32.0755 55.7906 32.2043 55.7906 32.3594L56.3189 32.342C56.3058 32.1869 56.2927 32.0667 56.2425 31.9881M54.4655 32.2677C54.4655 32.1475 54.4459 32.0449 54.3978 31.9859C54.352 31.9269 54.2887 31.9007 54.197 31.9007C54.1337 31.9007 54.0813 31.9269 54.0224 31.9728C53.9918 32.0187 53.9525 32.0907 53.9285 32.165C53.9088 32.2633 53.8957 32.366 53.8957 32.4949C53.9023 32.6893 53.9285 32.8487 53.9656 32.9623C54.018 33.0562 54.0813 33.1043 54.1839 33.1043C54.2232 33.0977 54.2734 33.0846 54.3127 33.065C54.3651 33.0453 54.3978 33.006 54.4284 32.9623C54.4524 32.9164 54.4786 32.8575 54.4786 32.8007L54.4655 32.2699V32.2677ZM53.6905 28.9016C53.6141 28.9605 53.5639 29.0479 53.5639 29.1571C53.5639 29.2139 53.5879 29.2707 53.6272 29.3013C53.6643 29.3275 53.7102 29.3515 53.7735 29.3515C53.8193 29.3515 53.8695 29.3275 53.9154 29.3078C53.9525 29.2816 53.9918 29.2489 54.018 29.203C54.0376 29.1571 54.0442 29.1069 54.0442 29.0654V28.8054C53.8826 28.8164 53.7604 28.8404 53.6905 28.8994M53.6905 28.8994C53.6141 28.9583 53.5639 29.0457 53.5639 29.1549C53.5639 29.2117 53.5879 29.2685 53.6272 29.2991C53.6643 29.3253 53.7102 29.3493 53.7735 29.3493C53.8193 29.3493 53.8695 29.3253 53.9154 29.3057C53.9525 29.2794 53.9918 29.2467 54.018 29.2008C54.0376 29.1549 54.0442 29.1047 54.0442 29.0632V28.8033C53.8826 28.8142 53.7604 28.8382 53.6905 28.8972M54.4655 32.2633C54.4655 32.1432 54.4459 32.0405 54.3978 31.9815C54.352 31.9226 54.2887 31.8963 54.197 31.8963C54.1337 31.8963 54.0813 31.9226 54.0224 31.9684C53.9918 32.0143 53.9525 32.0864 53.9285 32.1606C53.9088 32.2589 53.8957 32.3616 53.8957 32.4905C53.9023 32.6849 53.9285 32.8444 53.9656 32.9579C54.018 33.0519 54.0813 33.0999 54.1839 33.0999C54.2232 33.0934 54.2734 33.0803 54.3127 33.0606C54.3651 33.041 54.3978 33.0016 54.4284 32.9579C54.4524 32.9121 54.4786 32.8531 54.4786 32.7963L54.4655 32.2655V32.2633ZM56.2425 31.9837C56.2097 31.9073 56.1442 31.8679 56.0635 31.8679C55.9827 31.8679 55.9216 31.9073 55.8713 31.9859C55.8321 32.0689 55.7928 32.1978 55.7928 32.3529L56.321 32.3354C56.3079 32.1803 56.2948 32.0602 56.2446 31.9815M56.9301 28.7639C56.7751 28.7683 56.6594 28.7989 56.5786 28.8579C56.5088 28.919 56.4695 28.9977 56.4695 29.0981C56.4695 29.1702 56.4957 29.2139 56.5153 29.2598C56.559 29.2838 56.6026 29.3057 56.6681 29.3057C56.714 29.3057 56.7576 29.2838 56.81 29.2642C56.8493 29.2358 56.8799 29.2074 56.9061 29.1549C56.9323 29.1113 56.9366 29.0719 56.9366 29.0261L56.9323 28.7618L56.9301 28.7639ZM57.3601 36.4333C57.2685 36.5076 57.2204 36.6015 57.2204 36.7391C57.2204 36.8025 57.2314 36.8614 57.2837 36.9008C57.3143 36.9444 57.3711 36.9707 57.4497 36.9707C57.4999 36.9707 57.5523 36.9488 57.6046 36.9248C57.6614 36.9008 57.6941 36.8549 57.7334 36.8025C57.7509 36.7566 57.7706 36.6998 57.7706 36.6474L57.7771 36.3372C57.585 36.3372 57.4497 36.3765 57.3601 36.4355M58.7704 28.1458C58.7267 28.089 58.6612 28.0562 58.5673 28.0562C58.5019 28.0562 58.4429 28.0824 58.3949 28.1283C58.3556 28.1873 58.3163 28.2462 58.3032 28.3467C58.2792 28.4297 58.2705 28.5324 58.2705 28.6503C58.2705 28.86 58.2966 29.0064 58.3469 29.1156C58.3862 29.2205 58.4647 29.2685 58.5586 29.2685C58.6023 29.2685 58.6416 29.2532 58.6961 29.2336C58.7332 29.2095 58.7725 29.1746 58.8053 29.1287C58.8249 29.0785 58.8489 29.0304 58.8424 28.9605V28.4297C58.8424 28.3074 58.8162 28.2025 58.7725 28.1458M58.7725 28.1458C58.7289 28.089 58.6634 28.0562 58.5695 28.0562C58.504 28.0562 58.4451 28.0824 58.3971 28.1283C58.3578 28.1873 58.3185 28.2462 58.3054 28.3467C58.2814 28.4297 58.2726 28.5324 58.2726 28.6503C58.2726 28.86 58.2988 29.0064 58.349 29.1156C58.3883 29.2205 58.4669 29.2685 58.5608 29.2685C58.6045 29.2685 58.6437 29.2532 58.6983 29.2336C58.7354 29.2095 58.7747 29.1746 58.8075 29.1287C58.8271 29.0785 58.8511 29.0304 58.8446 28.9605V28.4297C58.8446 28.3074 58.8184 28.2025 58.7747 28.1458M57.3645 36.4355C57.2728 36.5098 57.2248 36.6037 57.2248 36.7413C57.2248 36.8046 57.2357 36.8636 57.2881 36.9029C57.3187 36.9466 57.3754 36.9728 57.454 36.9728C57.5042 36.9728 57.5566 36.951 57.609 36.927C57.6658 36.9029 57.6985 36.8571 57.7378 36.8046C57.7553 36.7588 57.7749 36.702 57.7749 36.6496L57.7815 36.3394C57.5894 36.3394 57.454 36.3787 57.3645 36.4377M56.249 31.9859C56.2163 31.9094 56.1508 31.8701 56.07 31.8701C55.9892 31.8701 55.9281 31.9094 55.8779 31.9881C55.8386 32.0711 55.7993 32.2 55.7993 32.3551L56.3276 32.3376C56.3145 32.1825 56.3014 32.0624 56.2512 31.9837M54.4742 32.2633C54.4742 32.1432 54.4546 32.0405 54.4066 31.9815C54.3607 31.9226 54.2974 31.8963 54.2057 31.8963C54.1424 31.8963 54.09 31.9226 54.0311 31.9684C54.0005 32.0143 53.9612 32.0864 53.9372 32.1606C53.9176 32.2589 53.9045 32.3616 53.9045 32.4905C53.911 32.6849 53.9372 32.8444 53.9743 32.9579C54.0267 33.0519 54.09 33.0999 54.1926 33.0999C54.2319 33.0934 54.2821 33.0803 54.3214 33.0606C54.3738 33.041 54.4066 33.0016 54.4371 32.9579C54.4611 32.9121 54.4873 32.8531 54.4873 32.7963L54.4742 32.2655V32.2633ZM53.6993 28.8972C53.6229 28.9562 53.5727 29.0435 53.5727 29.1528C53.5727 29.2095 53.5967 29.2663 53.636 29.2969C53.6731 29.3231 53.7189 29.3472 53.7822 29.3472C53.8281 29.3472 53.8783 29.3231 53.9241 29.3035C53.9612 29.2773 54.0005 29.2445 54.0267 29.1986C54.0464 29.1528 54.0529 29.1025 54.0529 29.061V28.8011C53.8914 28.812 53.7691 28.836 53.6993 28.895M56.9388 28.7639C56.7838 28.7683 56.6681 28.7989 56.5874 28.8579C56.5175 28.919 56.4782 28.9977 56.4782 29.0981C56.4782 29.1702 56.5044 29.2139 56.5241 29.2598C56.5677 29.2838 56.6114 29.3057 56.6769 29.3057C56.7227 29.3057 56.7664 29.2838 56.8188 29.2642C56.8581 29.2358 56.8886 29.2074 56.9148 29.1549C56.941 29.1113 56.9454 29.0719 56.9454 29.0261L56.941 28.7618L56.9388 28.7639ZM61.7349 29.6639C61.593 26.206 60.0823 23.8949 58.683 23.5454C56.094 22.9011 47.517 23.1064 46.2029 23.7792C46.3841 23.8949 46.491 23.9998 46.6395 24.1352C47.338 24.8648 47.8248 25.8172 48.0759 26.7477C49.1477 30.5704 48.2811 34.9741 47.5629 38.799C47.4537 39.38 47.1154 40.3586 47.2202 41.0904C47.2769 41.3023 47.3686 41.4508 47.5651 41.5404C47.8598 41.6998 48.2571 41.5076 48.4885 41.2652C48.7832 40.9091 49.0539 40.4831 49.2525 40.0616H61.0887C61.2699 38.7924 61.8833 34.0764 61.7392 29.6639M57.6352 32.8138C57.6352 32.9164 57.6352 32.9863 57.6483 33.0191C57.6483 33.0562 57.6614 33.0912 57.681 33.1174C57.7007 33.1349 57.7313 33.1502 57.7902 33.1655V33.2703L57.0262 33.2834V33.1742C57.0567 33.1633 57.0764 33.1611 57.0895 33.148C57.1156 33.1414 57.1222 33.1283 57.1353 33.1152C57.1462 33.0999 57.1528 33.0759 57.1528 33.0562C57.1724 33.0453 57.1724 33.0126 57.1724 32.9798V32.8225L57.1528 31.5883V31.3961C57.1528 31.3437 57.1528 31.3109 57.1462 31.2782C57.1397 31.2519 57.1353 31.2257 57.1222 31.2126C57.1157 31.1908 57.0895 31.1842 57.0764 31.1689C57.0567 31.1558 57.0261 31.1515 56.9825 31.1493V31.0357L57.4038 31.0117H57.609L57.6352 32.8138ZM56.9105 28.2266C56.8843 28.1807 56.8602 28.1414 56.8209 28.1217C56.7882 28.0977 56.7511 28.0846 56.6987 28.0846C56.6398 28.0846 56.6092 28.0977 56.5699 28.1086C56.5372 28.1239 56.5066 28.1676 56.4804 28.1982C56.4542 28.2484 56.4302 28.3118 56.4105 28.3991L56.1268 28.4101L56.1158 28.1195C56.2184 28.0759 56.3079 28.0387 56.3582 28.0191C56.4084 27.9907 56.4804 27.9666 56.5503 27.9535C56.607 27.947 56.6594 27.9339 56.7096 27.9208C56.7533 27.9208 56.8057 27.9077 56.8581 27.9077C56.9847 27.9077 57.0873 27.9208 57.1528 27.9535C57.2357 27.9907 57.3012 28.0431 57.334 28.1195C57.3776 28.1916 57.3907 28.3008 57.3907 28.4319L57.4038 29.0523V29.2139C57.4169 29.2467 57.4169 29.2838 57.4235 29.2926L57.4606 29.345C57.4606 29.3559 57.4737 29.3559 57.4737 29.3559C57.4977 29.3756 57.5304 29.3799 57.5763 29.3887V29.4935L56.9999 29.5044L57.0109 29.2904L56.9803 29.2816C56.8908 29.3734 56.8209 29.4389 56.7249 29.4782C56.6616 29.5175 56.5699 29.5372 56.4804 29.5372C56.3844 29.5372 56.3079 29.5175 56.2359 29.4891C56.1791 29.4433 56.1268 29.4061 56.094 29.3537C56.0547 29.2882 56.0373 29.2248 56.0373 29.1462C56.0373 28.9933 56.1137 28.8753 56.2556 28.7792C56.4084 28.6809 56.6398 28.6307 56.941 28.6023V28.445C56.941 28.3533 56.9279 28.279 56.9083 28.2222M54.9545 28.0016C54.9916 27.9776 55.0112 27.9513 55.0243 27.9164C55.0374 27.8727 55.0505 27.829 55.068 27.7722C55.068 27.7176 55.0833 27.6521 55.0833 27.5625L55.4544 27.5582L55.4609 27.9513L55.9085 27.9448V28.137L55.4675 28.1479L55.4784 28.86C55.4784 28.978 55.4784 29.0697 55.485 29.1265C55.5046 29.1833 55.5243 29.2227 55.5483 29.2554C55.5745 29.2794 55.6116 29.2882 55.6509 29.2882C55.6771 29.2882 55.7076 29.2816 55.7273 29.2816C55.7535 29.2816 55.7644 29.2707 55.7906 29.2576C55.8211 29.2379 55.8473 29.2248 55.8801 29.1921L55.9827 29.3166C55.8866 29.4061 55.8037 29.4608 55.7338 29.4913C55.6574 29.5285 55.5723 29.535 55.4828 29.535C55.3365 29.5481 55.2208 29.5154 55.1357 29.4192C55.0658 29.3428 55.02 29.2117 55.02 29.037L55.0156 28.1523L54.8148 28.1632L54.8082 28.0453C54.8715 28.0365 54.9174 28.0191 54.9501 28.0016M55.1793 34.605L55.1662 35.0506L54.6707 35.0462L54.6838 34.5897L55.1772 34.6028L55.1793 34.605ZM53.3587 28.8164C53.5115 28.7268 53.7429 28.6613 54.0442 28.6285V28.48C54.0442 28.386 54.0311 28.3096 54.0114 28.2593C53.9809 28.2091 53.959 28.1763 53.9263 28.1479C53.8892 28.1261 53.8499 28.1174 53.7975 28.1174C53.7473 28.1217 53.7015 28.1261 53.6687 28.1392C53.6425 28.1632 53.6054 28.1916 53.5792 28.2397C53.5486 28.2943 53.5377 28.3598 53.5159 28.4363L53.2212 28.445V28.1523C53.3107 28.1174 53.3937 28.0737 53.4504 28.0475C53.5268 28.0278 53.5858 28.0038 53.6425 27.9885C53.7015 27.9797 53.7648 27.9645 53.8172 27.9557C53.8608 27.9513 53.911 27.9448 53.959 27.9448C54.0878 27.9448 54.1883 27.9557 54.2603 27.9885C54.3389 28.0212 54.4022 28.0802 54.4349 28.1523C54.4851 28.2353 54.4939 28.3402 54.4939 28.469L54.507 29.0872V29.2445C54.5201 29.2816 54.5266 29.3035 54.5266 29.3297C54.5332 29.3559 54.5441 29.3625 54.5572 29.3756C54.5572 29.3756 54.5768 29.3865 54.6008 29.3996C54.6139 29.4061 54.6401 29.4105 54.686 29.4258V29.5285L54.0966 29.535L54.1097 29.3275L54.09 29.3166C54.0005 29.4061 53.9241 29.4651 53.839 29.5175C53.7495 29.5481 53.6709 29.5612 53.5814 29.5612C53.5006 29.5722 53.4155 29.5612 53.3391 29.5219C53.2823 29.4891 53.2365 29.4433 53.1972 29.3865C53.1601 29.3297 53.1382 29.2598 53.1382 29.179C53.1317 29.0261 53.2146 28.9015 53.3565 28.8185M51.394 27.9666C51.3744 27.9077 51.3569 27.8487 51.3416 27.8181C51.3373 27.7853 51.3176 27.7504 51.3111 27.7285C51.2936 27.7154 51.2783 27.6914 51.2783 27.6914C51.2412 27.6586 51.2281 27.6433 51.2281 27.6433C51.1954 27.6302 51.1648 27.6193 51.143 27.6128C51.1102 27.604 51.084 27.604 51.0404 27.604H50.9269L50.9443 29.1833V29.3057C50.9574 29.345 50.9705 29.3646 50.9705 29.3909L51.0033 29.4236C51.0207 29.4433 51.0338 29.4476 51.0535 29.4476C51.071 29.4651 51.1102 29.4695 51.143 29.4804V29.5787L50.2763 29.5896V29.4782C50.3135 29.4782 50.3527 29.4673 50.3789 29.4455C50.3986 29.4455 50.4182 29.4258 50.4379 29.4018C50.4488 29.3799 50.4488 29.3559 50.4619 29.3166V29.1964L50.4444 27.6193H50.3091C50.2501 27.6193 50.213 27.6302 50.1672 27.6433C50.1279 27.6565 50.1039 27.6761 50.0821 27.7154C50.0493 27.7526 50.0384 27.7875 50.0188 27.8378C50.0057 27.8967 49.986 27.9492 49.9795 27.9907H49.7677L49.7568 27.4402L51.6036 27.4096L51.6145 27.9666H51.3918H51.394ZM51.8918 28.4559V28.2943C51.8852 28.2484 51.8808 28.2244 51.8677 28.196C51.8677 28.196 51.8372 28.1654 51.8284 28.137C51.811 28.1239 51.7739 28.1152 51.7193 28.1064L51.7127 28.0016L52.1493 27.9776H52.3415L52.3284 28.2113L52.3415 28.2222C52.4266 28.137 52.5008 28.0671 52.5728 28.0191C52.6602 27.9819 52.7453 27.9623 52.8414 27.9557C52.9068 27.9557 52.9636 27.9645 53.0335 27.9776L53.0444 28.421H52.7497C52.7431 28.3555 52.7169 28.3096 52.6864 28.2768C52.6602 28.2397 52.6231 28.2331 52.5707 28.2331C52.5707 28.2331 52.5248 28.2353 52.4986 28.2441C52.4681 28.2681 52.4419 28.2899 52.4222 28.3096C52.4026 28.3358 52.3786 28.362 52.3698 28.3948C52.3589 28.421 52.3524 28.4428 52.3524 28.4712C52.3524 28.504 52.3458 28.5455 52.3458 28.6001L52.3524 29.0938C52.3589 29.2008 52.3589 29.2816 52.3589 29.3122C52.3786 29.3515 52.396 29.3843 52.4091 29.4061C52.4266 29.4302 52.4746 29.4433 52.5248 29.4586V29.5612H51.7477V29.4651C51.8066 29.4433 51.8328 29.4389 51.8568 29.4061C51.8765 29.3865 51.8874 29.3537 51.8874 29.3166C51.907 29.2816 51.907 29.2117 51.907 29.1091L51.8874 28.4559H51.8918ZM54.0551 35.7321C53.9962 35.8457 53.8892 35.944 53.7386 35.9964C53.6054 36.0554 53.4373 36.0816 53.2408 36.0816C53.1186 36.0816 53.0225 36.0729 52.9505 36.0685L52.9374 36.6539V36.8243C52.9505 36.8571 52.9571 36.8898 52.9636 36.9095C52.9898 36.9292 53.0007 36.9401 53.0335 36.9532C53.0531 36.9728 53.0968 36.9794 53.1492 36.9969L53.1339 37.1148L52.1712 37.0886V36.9728C52.2105 36.9663 52.2563 36.9444 52.2825 36.9401C52.3 36.9226 52.3262 36.9095 52.3262 36.8811C52.3524 36.8593 52.3589 36.8243 52.3589 36.7806C52.3589 36.7479 52.3698 36.6976 52.3698 36.6452L52.4026 35.055V34.9195C52.4026 34.878 52.396 34.854 52.3786 34.8212C52.3589 34.795 52.3458 34.7775 52.3262 34.7622C52.2956 34.7426 52.2563 34.7295 52.2105 34.7164L52.217 34.594L53.2692 34.6181C53.577 34.6268 53.815 34.6836 53.9547 34.7928C54.1031 34.9086 54.1752 35.0834 54.1752 35.3105C54.1752 35.4787 54.1359 35.6142 54.0529 35.7299M54.0027 33.3424C53.8172 33.3424 53.6687 33.2791 53.5661 33.1414C53.4701 33.0191 53.4242 32.8181 53.4242 32.5538C53.4242 32.3791 53.4504 32.224 53.5072 32.0929C53.5661 31.975 53.6403 31.8876 53.7626 31.8199C53.8717 31.7522 54.0071 31.7216 54.1621 31.715C54.2057 31.715 54.2581 31.7216 54.2974 31.7281C54.3411 31.7325 54.4 31.7391 54.4568 31.7544V31.6189C54.4568 31.5031 54.4502 31.4245 54.4502 31.3808C54.4502 31.324 54.4371 31.2956 54.4328 31.276C54.4197 31.2498 54.4066 31.2235 54.3804 31.2104C54.3694 31.1886 54.3236 31.1886 54.2778 31.182V31.0685L54.7122 31.0422L54.8999 31.0357L54.9261 32.8444C54.9327 32.923 54.9327 32.9798 54.9327 33.0126C54.9327 33.0497 54.9479 33.0846 54.9523 33.0977C54.9654 33.1218 54.9785 33.1414 55.0025 33.1567C55.0025 33.1567 55.0593 33.1829 55.0986 33.1895V33.3031L54.6816 33.3162L54.4895 33.3206L54.5026 33.089H54.483C54.4 33.1676 54.3214 33.2223 54.2407 33.2681C54.1555 33.314 54.0857 33.3337 54.0027 33.3402M55.3169 37.1498L54.4328 37.1389V37.0078C54.4917 37.0034 54.5419 36.9772 54.5681 36.9641C54.5747 36.9313 54.5987 36.8942 54.6052 36.8527C54.6183 36.809 54.627 36.7304 54.627 36.6146L54.638 35.7605V35.612C54.6314 35.5727 54.6183 35.553 54.6052 35.529C54.5987 35.4962 54.5681 35.4962 54.5397 35.4765C54.5397 35.4765 54.483 35.4547 54.4524 35.4394V35.3171H55.1772L55.151 36.6212V36.8483C55.1575 36.8877 55.1641 36.9073 55.1641 36.9073C55.1837 36.9401 55.1837 36.9444 55.1968 36.9728L55.2274 36.9991C55.2667 37.01 55.2907 37.0253 55.3169 37.0318V37.1541V37.1498ZM55.3321 32.5276C55.3321 32.3529 55.3649 32.2043 55.4217 32.082C55.4784 31.9466 55.5701 31.8592 55.6902 31.798C55.7993 31.7303 55.9325 31.6932 56.0875 31.6932C56.1879 31.6866 56.273 31.7041 56.3363 31.7194C56.4215 31.7456 56.4717 31.7696 56.5306 31.8177C56.5808 31.8548 56.6245 31.8963 56.6529 31.9575C56.7031 32.0165 56.7293 32.0907 56.7467 32.1781C56.7729 32.2655 56.786 32.3682 56.786 32.4949L55.7906 32.5058C55.7906 32.7002 55.8364 32.8422 55.8997 32.923C55.9696 33.0169 56.0678 33.0694 56.201 33.0694C56.2861 33.0606 56.3582 33.0497 56.4215 33.0104C56.4782 32.9798 56.5546 32.923 56.6245 32.8487L56.7467 32.9907C56.6463 33.0956 56.5415 33.1829 56.4389 33.2375C56.3298 33.2812 56.2141 33.3096 56.0722 33.3096C55.8364 33.3162 55.6509 33.2528 55.5221 33.1218C55.3998 32.9863 55.3409 32.7854 55.33 32.5276M56.4695 37.176L55.5788 37.1563V37.0318C55.6116 37.0253 55.6443 37.0209 55.6618 37.0056C55.688 37.0012 55.7011 36.9881 55.7076 36.9685C55.7076 36.9685 55.7316 36.9357 55.7469 36.9095C55.7513 36.892 55.7578 36.8527 55.7578 36.8199C55.7578 36.7741 55.7644 36.7107 55.7644 36.6321L55.7884 35.2035C55.7949 35.1008 55.7949 35.0244 55.7949 34.9698C55.7949 34.9261 55.7884 34.8889 55.784 34.8562C55.784 34.8169 55.7775 34.7906 55.7578 34.7644C55.7513 34.7513 55.7316 34.7273 55.7076 34.712C55.688 34.7011 55.6509 34.6967 55.5919 34.6945L55.605 34.5657L56.1049 34.546H56.3298L56.297 36.6496C56.297 36.7653 56.297 36.8352 56.3036 36.8898C56.3101 36.9292 56.3232 36.9663 56.3472 36.9925C56.3603 37.0253 56.3975 37.0384 56.4673 37.058V37.1804L56.4695 37.176ZM58.4909 37.2153L57.8055 37.2L57.8317 36.9641L57.7989 36.951C57.7051 37.0537 57.6068 37.1192 57.5042 37.1585C57.4082 37.2022 57.3121 37.224 57.2095 37.2175C57.1069 37.2175 57.0174 37.1978 56.9345 37.152C56.8624 37.1214 56.8122 37.069 56.7664 36.9969C56.7271 36.9248 56.7096 36.8461 56.7096 36.7588C56.7162 36.5775 56.81 36.4267 56.9912 36.3306C57.1637 36.2323 57.4322 36.1755 57.7793 36.1581L57.7858 35.9768C57.7858 35.8719 57.7727 35.7802 57.7531 35.7234C57.7356 35.6578 57.6963 35.612 57.6658 35.5858C57.6199 35.5683 57.5675 35.553 57.5173 35.5486C57.4584 35.5486 57.4082 35.553 57.3689 35.5748C57.3252 35.601 57.2925 35.6251 57.2597 35.6819C57.2226 35.743 57.2008 35.8195 57.1746 35.9178L56.8275 35.9047L56.8471 35.5727C56.9476 35.5224 57.0523 35.4853 57.1222 35.4591C57.1986 35.4416 57.2685 35.4154 57.3383 35.4001C57.4104 35.3826 57.4802 35.3695 57.5326 35.3695C57.5828 35.3564 57.6614 35.3564 57.7116 35.3564C57.8535 35.3564 57.967 35.3826 58.0456 35.4219C58.1482 35.4591 58.2071 35.5246 58.2464 35.6163C58.2901 35.7059 58.3097 35.8239 58.3097 35.9789L58.2879 36.6954C58.2879 36.7806 58.2879 36.8374 58.2945 36.8811C58.2945 36.927 58.301 36.9663 58.301 36.9663C58.3141 37.0056 58.3272 37.0253 58.3272 37.0253C58.3534 37.0515 58.3731 37.058 58.3731 37.058C58.3905 37.0711 58.4385 37.0864 58.4888 37.0908V37.2197L58.4909 37.2153ZM58.3752 29.5132C58.1831 29.5132 58.0412 29.4389 57.9517 29.31C57.8491 29.1811 57.7989 28.9867 57.7989 28.7246C57.7989 28.5433 57.8186 28.3926 57.8688 28.2681C57.9321 28.1348 58.0172 28.0453 58.1264 27.9841C58.2421 27.9142 58.3752 27.8858 58.5302 27.8836C58.5892 27.8836 58.6263 27.888 58.6721 27.888C58.7223 27.9033 58.7747 27.9033 58.8271 27.9273V27.7788C58.8271 27.6696 58.8271 27.5909 58.8184 27.5363C58.8184 27.4948 58.8118 27.4555 58.8075 27.4358C58.7944 27.4031 58.7813 27.3921 58.7551 27.379C58.7376 27.3594 58.7049 27.3463 58.6459 27.3463V27.2414L59.076 27.2065H59.2812L59.2986 29.0086C59.2986 29.0916 59.3074 29.144 59.3074 29.1833C59.3117 29.2227 59.3117 29.2554 59.3183 29.2816C59.3379 29.2882 59.351 29.3013 59.3619 29.3275C59.3881 29.3406 59.434 29.3515 59.4776 29.3581V29.4629L59.0476 29.4891H58.8686V29.2685H58.8489C58.7725 29.3406 58.7005 29.3974 58.611 29.4411C58.528 29.4891 58.4451 29.5154 58.3731 29.5154M60.2723 35.9287L59.9448 35.9222C59.9186 35.8566 59.9055 35.802 59.875 35.7605C59.8291 35.7277 59.7898 35.7015 59.7418 35.7015C59.709 35.7015 59.6785 35.7059 59.6501 35.7256C59.6174 35.743 59.5868 35.7649 59.5628 35.7976C59.5366 35.8173 59.5104 35.8566 59.4973 35.8828C59.482 35.9134 59.4776 35.9396 59.4776 35.9746C59.4711 36.003 59.458 36.062 59.458 36.1209L59.4515 36.7042C59.4515 36.8199 59.4515 36.9029 59.458 36.9423C59.4711 36.9947 59.4842 37.0253 59.5082 37.0537C59.5344 37.0842 59.5781 37.0973 59.6305 37.1192L59.6261 37.2415L58.7398 37.2219V37.0995C58.8031 37.0842 58.8424 37.069 58.8686 37.0406C58.8904 37.01 58.9079 36.9772 58.9079 36.9401C58.9275 36.8942 58.9275 36.8221 58.9275 36.6932L58.9537 35.9418C58.9537 35.8588 58.9537 35.7867 58.9384 35.7452C58.9341 35.6972 58.9341 35.6709 58.9275 35.6382C58.9079 35.6142 58.9013 35.6011 58.8686 35.5727C58.8511 35.553 58.8118 35.5486 58.7551 35.5268V35.4045L59.255 35.3979H59.4798L59.4471 35.6688L59.4733 35.6797C59.565 35.5705 59.6523 35.5093 59.7505 35.4612C59.8444 35.4176 59.9426 35.3957 60.0496 35.3957C60.126 35.3957 60.2046 35.4088 60.2875 35.4197L60.2744 35.9243L60.2723 35.9287ZM61.1586 29.1069C61.0887 29.2314 61.0101 29.3144 60.8966 29.3843C60.7722 29.4433 60.6281 29.4739 60.46 29.4739C60.3115 29.4739 60.1828 29.4542 60.0692 29.404C59.9601 29.3537 59.8771 29.2685 59.8007 29.1462C59.7418 29.0261 59.7025 28.8753 59.7025 28.6875C59.7025 28.5521 59.7156 28.4275 59.7614 28.3249C59.8007 28.22 59.8444 28.137 59.9099 28.0671C59.9797 28.0016 60.0692 27.9426 60.1653 27.9186C60.2613 27.8727 60.3574 27.8727 60.4665 27.8727C60.7219 27.8596 60.9141 27.9229 61.0429 28.0649C61.176 28.1916 61.2437 28.3882 61.2437 28.6416C61.248 28.8229 61.2175 28.978 61.1586 29.1069ZM60.46 28.0278C60.3967 28.0278 60.3377 28.0475 60.2919 28.1064C60.2613 28.1392 60.2286 28.2135 60.2111 28.3008C60.1915 28.3991 60.1849 28.5062 60.1849 28.6569C60.1849 28.8775 60.2111 29.0501 60.2613 29.1484C60.3115 29.2707 60.3836 29.3166 60.4927 29.3144C60.5495 29.3144 60.5888 29.3057 60.6194 29.2707C60.663 29.2445 60.6914 29.203 60.7176 29.1484C60.7351 29.0981 60.7481 29.037 60.7547 28.954C60.7722 28.8753 60.7722 28.7945 60.7722 28.7028C60.7722 28.4734 60.7416 28.3008 60.6914 28.1916C60.639 28.0802 60.567 28.0212 60.46 28.0278ZM58.5695 28.0475C58.504 28.0475 58.4451 28.0737 58.3971 28.1195C58.3578 28.1785 58.3185 28.2375 58.3054 28.338C58.2814 28.421 58.2726 28.5237 58.2726 28.6416C58.2726 28.8513 58.2988 28.9977 58.349 29.1069C58.3883 29.2117 58.4669 29.2598 58.5608 29.2598C58.6045 29.2598 58.6437 29.2445 58.6983 29.2248C58.7354 29.2008 58.7747 29.1659 58.8075 29.12C58.8271 29.0697 58.8511 29.0217 58.8446 28.9518V28.421C58.8446 28.2987 58.8184 28.1938 58.7747 28.137C58.7311 28.0802 58.6656 28.0475 58.5717 28.0475M57.2248 36.7326C57.2248 36.7959 57.2357 36.8549 57.2881 36.8942C57.3187 36.9379 57.3754 36.9641 57.454 36.9641C57.5042 36.9641 57.5566 36.9423 57.609 36.9182C57.6658 36.8942 57.6985 36.8483 57.7378 36.7959C57.7553 36.75 57.7749 36.6932 57.7749 36.6408L57.7815 36.3306C57.5894 36.3306 57.454 36.37 57.3645 36.4289C57.2728 36.5032 57.2248 36.5971 57.2248 36.7347M56.583 28.8557C56.5131 28.9168 56.4739 28.9955 56.4739 29.096C56.4739 29.168 56.5 29.2117 56.5197 29.2576C56.5634 29.2816 56.607 29.3035 56.6725 29.3035C56.7183 29.3035 56.762 29.2816 56.8144 29.262C56.8537 29.2336 56.8843 29.2052 56.9105 29.1528C56.9366 29.1091 56.941 29.0697 56.941 29.0239L56.9366 28.7596C56.7817 28.7639 56.666 28.7945 56.5852 28.8535M56.2512 31.975C56.2184 31.8985 56.1529 31.8592 56.0722 31.8592C55.9914 31.8592 55.9303 31.8985 55.8801 31.9772C55.8408 32.0602 55.8015 32.189 55.8015 32.3441L56.3298 32.3267C56.3167 32.1716 56.3036 32.0514 56.2534 31.9728M54.4764 32.2524C54.4764 32.1323 54.4568 32.0296 54.4087 31.9706C54.3629 31.9116 54.2996 31.8854 54.2079 31.8854C54.1446 31.8854 54.0922 31.9116 54.0333 31.9575C54.0027 32.0034 53.9634 32.0755 53.9394 32.1497C53.9198 32.248 53.9067 32.3507 53.9067 32.4796C53.9132 32.674 53.9394 32.8334 53.9765 32.947C54.0289 33.041 54.0922 33.089 54.1948 33.089C54.2341 33.0825 54.2843 33.0694 54.3236 33.0497C54.376 33.03 54.4087 32.9907 54.4393 32.947C54.4633 32.9012 54.4895 32.8422 54.4895 32.7854L54.4764 32.2546V32.2524ZM53.7822 29.3384C53.8281 29.3384 53.8783 29.3144 53.9241 29.2947C53.9612 29.2685 54.0005 29.2358 54.0267 29.1899C54.0464 29.144 54.0529 29.0938 54.0529 29.0523V28.7923C53.8914 28.8033 53.7691 28.8273 53.6993 28.8863C53.6229 28.9452 53.5727 29.0326 53.5727 29.1418C53.5727 29.1986 53.5967 29.2554 53.636 29.286C53.6731 29.3122 53.7189 29.3362 53.7822 29.3362M56.9388 28.7552C56.7838 28.7596 56.6681 28.7901 56.5874 28.8491C56.5175 28.9103 56.4782 28.9889 56.4782 29.0894C56.4782 29.1615 56.5044 29.2052 56.5241 29.2511C56.5677 29.2751 56.6114 29.2969 56.6769 29.2969C56.7227 29.2969 56.7664 29.2751 56.8188 29.2554C56.8581 29.227 56.8886 29.1986 56.9148 29.1462C56.941 29.1025 56.9454 29.0632 56.9454 29.0173L56.941 28.753L56.9388 28.7552ZM53.6993 28.8863C53.6229 28.9452 53.5727 29.0326 53.5727 29.1418C53.5727 29.1986 53.5967 29.2554 53.636 29.286C53.6731 29.3122 53.7189 29.3362 53.7822 29.3362C53.8281 29.3362 53.8783 29.3122 53.9241 29.2926C53.9612 29.2663 54.0005 29.2336 54.0267 29.1877C54.0464 29.1418 54.0529 29.0916 54.0529 29.0501V28.7901C53.8914 28.8011 53.7691 28.8251 53.6993 28.8841M54.4742 32.2502C54.4742 32.1301 54.4546 32.0274 54.4066 31.9684C54.3607 31.9094 54.2974 31.8832 54.2057 31.8832C54.1424 31.8832 54.09 31.9094 54.0311 31.9553C54.0005 32.0012 53.9612 32.0733 53.9372 32.1475C53.9176 32.2458 53.9045 32.3485 53.9045 32.4774C53.911 32.6718 53.9372 32.8313 53.9743 32.9448C54.0267 33.0388 54.09 33.0868 54.1926 33.0868C54.2319 33.0803 54.2821 33.0672 54.3214 33.0475C54.3738 33.0278 54.4066 32.9885 54.4371 32.9448C54.4611 32.899 54.4873 32.84 54.4873 32.7832L54.4742 32.2524V32.2502ZM56.2512 31.9706C56.2184 31.8942 56.1529 31.8548 56.0722 31.8548C55.9914 31.8548 55.9303 31.8942 55.8801 31.9728C55.8408 32.0558 55.8015 32.1847 55.8015 32.3398L56.3298 32.3223C56.3167 32.1672 56.3036 32.0471 56.2534 31.9684M57.3689 36.4202C57.2772 36.4945 57.2292 36.5884 57.2292 36.726C57.2292 36.7894 57.2401 36.8483 57.2925 36.8876C57.323 36.9313 57.3798 36.9576 57.4584 36.9576C57.5086 36.9576 57.561 36.9357 57.6134 36.9117C57.6701 36.8876 57.7029 36.8418 57.7422 36.7894C57.7596 36.7435 57.7793 36.6867 57.7793 36.6343L57.7858 36.3241C57.5937 36.3241 57.4584 36.3634 57.3689 36.4224M57.3689 36.4224C57.2772 36.4966 57.2292 36.5906 57.2292 36.7282C57.2292 36.7915 57.2401 36.8505 57.2925 36.8898C57.323 36.9335 57.3798 36.9597 57.4584 36.9597C57.5086 36.9597 57.561 36.9379 57.6134 36.9139C57.6701 36.8898 57.7029 36.844 57.7422 36.7915C57.7596 36.7457 57.7793 36.6889 57.7793 36.6364L57.7858 36.3263C57.5937 36.3263 57.4584 36.3656 57.3689 36.4246M56.9388 28.7552C56.7838 28.7596 56.6681 28.7901 56.5874 28.8491C56.5175 28.9103 56.4782 28.9889 56.4782 29.0894C56.4782 29.1615 56.5044 29.2052 56.5241 29.2511C56.5677 29.2751 56.6114 29.2969 56.6769 29.2969C56.7227 29.2969 56.7664 29.2751 56.8188 29.2554C56.8581 29.227 56.8886 29.1986 56.9148 29.1462C56.941 29.1025 56.9454 29.0632 56.9454 29.0173L56.941 28.753L56.9388 28.7552ZM56.2534 31.9728C56.2206 31.8963 56.1551 31.857 56.0744 31.857C55.9936 31.857 55.9325 31.8963 55.8823 31.975C55.843 32.058 55.8037 32.1869 55.8037 32.342L56.332 32.3245C56.3189 32.1694 56.3058 32.0492 56.2556 31.9706M54.4786 32.2502C54.4786 32.1301 54.459 32.0274 54.4109 31.9684C54.3651 31.9094 54.3018 31.8832 54.2101 31.8832C54.1468 31.8832 54.0944 31.9094 54.0355 31.9553C54.0049 32.0012 53.9656 32.0733 53.9416 32.1475C53.9219 32.2458 53.9088 32.3485 53.9088 32.4774C53.9154 32.6718 53.9416 32.8313 53.9787 32.9448C54.0311 33.0388 54.0944 33.0868 54.197 33.0868C54.2363 33.0803 54.2865 33.0672 54.3258 33.0475C54.3782 33.0278 54.4109 32.9885 54.4415 32.9448C54.4655 32.899 54.4917 32.84 54.4917 32.7832L54.4786 32.2524V32.2502ZM53.7036 28.8841C53.6272 28.9431 53.577 29.0304 53.577 29.1396C53.577 29.1964 53.601 29.2532 53.6403 29.2838C53.6774 29.31 53.7233 29.3341 53.7866 29.3341C53.8324 29.3341 53.8826 29.31 53.9285 29.2904C53.9656 29.2642 54.0049 29.2314 54.0311 29.1855C54.0507 29.1396 54.0573 29.0894 54.0573 29.0479V28.788C53.8957 28.7989 53.7735 28.8229 53.7036 28.8819M53.7036 28.8819C53.6272 28.9409 53.577 29.0282 53.577 29.1375C53.577 29.1943 53.601 29.2511 53.6403 29.2816C53.6774 29.3078 53.7233 29.3319 53.7866 29.3319C53.8324 29.3319 53.8826 29.3078 53.9285 29.2882C53.9656 29.262 54.0049 29.2292 54.0311 29.1833C54.0507 29.1375 54.0573 29.0872 54.0573 29.0457V28.7858C53.8957 28.7967 53.7735 28.8207 53.7036 28.8797M54.4786 32.2458C54.4786 32.1257 54.459 32.023 54.4109 31.9641C54.3651 31.9051 54.3018 31.8789 54.2101 31.8789C54.1468 31.8789 54.0944 31.9051 54.0355 31.9509C54.0049 31.9968 53.9656 32.0689 53.9416 32.1432C53.9219 32.2415 53.9088 32.3441 53.9088 32.473C53.9154 32.6674 53.9416 32.8269 53.9787 32.9405C54.0311 33.0344 54.0944 33.0825 54.197 33.0825C54.2363 33.0759 54.2865 33.0628 54.3258 33.0431C54.3782 33.0235 54.4109 32.9842 54.4415 32.9405C54.4655 32.8946 54.4917 32.8356 54.4917 32.7788L54.4786 32.248V32.2458ZM56.2556 31.9662C56.2228 31.8898 56.1573 31.8505 56.0765 31.8505C55.9958 31.8505 55.9347 31.8898 55.8844 31.9684C55.8452 32.0514 55.8059 32.1803 55.8059 32.3354L56.3341 32.3179C56.321 32.1628 56.3079 32.0427 56.2577 31.9641M57.3732 36.4158C57.2816 36.4901 57.2335 36.584 57.2335 36.7216C57.2335 36.785 57.2444 36.844 57.2968 36.8833C57.3274 36.927 57.3842 36.9532 57.4627 36.9532C57.513 36.9532 57.5653 36.9313 57.6177 36.9073C57.6745 36.8833 57.7072 36.8374 57.7465 36.785C57.764 36.7391 57.7836 36.6823 57.7836 36.6299L57.7902 36.3197C57.5981 36.3197 57.4627 36.359 57.3732 36.418M57.3732 36.418C57.2816 36.4923 57.2335 36.5862 57.2335 36.7238C57.2335 36.7872 57.2444 36.8461 57.2968 36.8855C57.3274 36.9292 57.3842 36.9554 57.4627 36.9554C57.513 36.9554 57.5653 36.9335 57.6177 36.9095C57.6745 36.8855 57.7072 36.8396 57.7465 36.7872C57.764 36.7413 57.7836 36.6845 57.7836 36.6321L57.7902 36.3219C57.5981 36.3219 57.4627 36.3612 57.3732 36.4202M56.2577 31.9684C56.225 31.892 56.1595 31.8527 56.0787 31.8527C55.998 31.8527 55.9368 31.892 55.8866 31.9706C55.8473 32.0536 55.808 32.1825 55.808 32.3376L56.3363 32.3201C56.3232 32.165 56.3101 32.0449 56.2599 31.9662M54.483 32.2458C54.483 32.1257 54.4633 32.023 54.4153 31.9641C54.3695 31.9051 54.3061 31.8789 54.2145 31.8789C54.1512 31.8789 54.0988 31.9051 54.0398 31.9509C54.0093 31.9968 53.97 32.0689 53.9459 32.1432C53.9263 32.2415 53.9132 32.3441 53.9132 32.473C53.9198 32.6674 53.9459 32.8269 53.9831 32.9405C54.0355 33.0344 54.0988 33.0825 54.2014 33.0825C54.2407 33.0759 54.2909 33.0628 54.3302 33.0431C54.3825 33.0235 54.4153 32.9842 54.4459 32.9405C54.4699 32.8946 54.4961 32.8356 54.4961 32.7788L54.483 32.248V32.2458ZM53.708 28.8797C53.6316 28.9387 53.5814 29.0261 53.5814 29.1353C53.5814 29.1921 53.6054 29.2489 53.6447 29.2794C53.6818 29.3057 53.7277 29.3297 53.791 29.3297C53.8368 29.3297 53.887 29.3057 53.9329 29.286C53.97 29.2598 54.0093 29.227 54.0355 29.1812C54.0551 29.1353 54.0616 29.085 54.0616 29.0435V28.7836C53.9001 28.7945 53.7779 28.8185 53.708 28.8775M54.483 32.2437C54.483 32.1235 54.4633 32.0209 54.4153 31.9619C54.3695 31.9029 54.3061 31.8767 54.2145 31.8767C54.1512 31.8767 54.0988 31.9029 54.0398 31.9488C54.0093 31.9946 53.97 32.0667 53.9459 32.141C53.9263 32.2393 53.9132 32.342 53.9132 32.4708C53.9198 32.6652 53.9459 32.8247 53.9831 32.9383C54.0355 33.0322 54.0988 33.0803 54.2014 33.0803C54.2407 33.0737 54.2909 33.0606 54.3302 33.041C54.3825 33.0213 54.4153 32.982 54.4459 32.9383C54.4699 32.8924 54.4961 32.8334 54.4961 32.7766L54.483 32.2458V32.2437ZM56.2599 31.9641C56.2272 31.8876 56.1617 31.8483 56.0809 31.8483C56.0001 31.8483 55.939 31.8876 55.8888 31.9662C55.8495 32.0492 55.8102 32.1781 55.8102 32.3332L56.3385 32.3157C56.3254 32.1606 56.3123 32.0405 56.2621 31.9619M57.3776 36.4136C57.2859 36.4879 57.2379 36.5818 57.2379 36.7195C57.2379 36.7828 57.2488 36.8418 57.3012 36.8811C57.3318 36.9248 57.3885 36.951 57.4671 36.951C57.5173 36.951 57.5697 36.9292 57.6221 36.9051C57.6789 36.8811 57.7116 36.8352 57.7509 36.7828C57.7684 36.7369 57.788 36.6801 57.788 36.6277L57.7946 36.3175C57.6025 36.3175 57.4671 36.3568 57.3776 36.4158M57.3776 36.4158C57.2859 36.4901 57.2379 36.584 57.2379 36.7216C57.2379 36.785 57.2488 36.844 57.3012 36.8833C57.3318 36.927 57.3885 36.9532 57.4671 36.9532C57.5173 36.9532 57.5697 36.9313 57.6221 36.9073C57.6789 36.8833 57.7116 36.8374 57.7509 36.785C57.7684 36.7391 57.788 36.6823 57.788 36.6299L57.7946 36.3197C57.6025 36.3197 57.4671 36.359 57.3776 36.418M56.2621 31.9662C56.2294 31.8898 56.1639 31.8505 56.0831 31.8505C56.0023 31.8505 55.9412 31.8898 55.891 31.9684C55.8517 32.0514 55.8124 32.1803 55.8124 32.3354L56.3407 32.3179C56.3276 32.1628 56.3145 32.0427 56.2643 31.9641M54.4873 32.2437C54.4873 32.1235 54.4677 32.0209 54.4197 31.9619C54.3738 31.9029 54.3105 31.8767 54.2188 31.8767C54.1555 31.8767 54.1031 31.9029 54.0442 31.9488C54.0136 31.9946 53.9743 32.0667 53.9503 32.141C53.9307 32.2393 53.9176 32.342 53.9176 32.4708C53.9241 32.6652 53.9503 32.8247 53.9874 32.9383C54.0398 33.0322 54.1031 33.0803 54.2057 33.0803C54.245 33.0737 54.2952 33.0606 54.3345 33.041C54.3869 33.0213 54.4197 32.982 54.4502 32.9383C54.4742 32.8924 54.5004 32.8334 54.5004 32.7766L54.4873 32.2458V32.2437ZM54.4873 32.2437C54.4873 32.1235 54.4677 32.0209 54.4197 31.9619C54.3738 31.9029 54.3105 31.8767 54.2188 31.8767C54.1555 31.8767 54.1031 31.9029 54.0442 31.9488C54.0136 31.9946 53.9743 32.0667 53.9503 32.141C53.9307 32.2393 53.9176 32.342 53.9176 32.4708C53.9241 32.6652 53.9503 32.8247 53.9874 32.9383C54.0398 33.0322 54.1031 33.0803 54.2057 33.0803C54.245 33.0737 54.2952 33.0606 54.3345 33.041C54.3869 33.0213 54.4197 32.982 54.4502 32.9383C54.4742 32.8924 54.5004 32.8334 54.5004 32.7766L54.4873 32.2458V32.2437ZM56.2643 31.9641C56.2315 31.8876 56.1661 31.8483 56.0853 31.8483C56.0045 31.8483 55.9434 31.8876 55.8932 31.9662C55.8539 32.0492 55.8146 32.1781 55.8146 32.3332L56.3429 32.3157C56.3298 32.1606 56.3167 32.0405 56.2665 31.9619M57.382 36.4136C57.2903 36.4879 57.2423 36.5818 57.2423 36.7195C57.2423 36.7828 57.2532 36.8418 57.3056 36.8811C57.3361 36.9248 57.3929 36.951 57.4715 36.951C57.5217 36.951 57.5741 36.9292 57.6265 36.9051C57.6832 36.8811 57.716 36.8352 57.7553 36.7828C57.7727 36.7369 57.7924 36.6801 57.7924 36.6277L57.7989 36.3175C57.6068 36.3175 57.4715 36.3568 57.382 36.4158M57.382 36.4158C57.2903 36.4901 57.2423 36.584 57.2423 36.7216C57.2423 36.785 57.2532 36.844 57.3056 36.8833C57.3361 36.927 57.3929 36.9532 57.4715 36.9532C57.5217 36.9532 57.5741 36.9313 57.6265 36.9073C57.6832 36.8833 57.716 36.8374 57.7553 36.785C57.7727 36.7391 57.7924 36.6823 57.7924 36.6299L57.7989 36.3197C57.6068 36.3197 57.4715 36.359 57.382 36.418M56.2665 31.9662C56.2337 31.8898 56.1682 31.8505 56.0875 31.8505C56.0067 31.8505 55.9456 31.8898 55.8954 31.9684C55.8561 32.0514 55.8168 32.1803 55.8168 32.3354L56.3451 32.3179C56.332 32.1628 56.3189 32.0427 56.2687 31.9641M54.4917 32.2437C54.4917 32.1235 54.472 32.0209 54.424 31.9619C54.3782 31.9029 54.3149 31.8767 54.2232 31.8767C54.1599 31.8767 54.1075 31.9029 54.0485 31.9488C54.018 31.9946 53.9787 32.0667 53.9547 32.141C53.935 32.2393 53.9219 32.342 53.9219 32.4708C53.9285 32.6652 53.9547 32.8247 53.9918 32.9383C54.0442 33.0322 54.1075 33.0803 54.2101 33.0803C54.2494 33.0737 54.2996 33.0606 54.3389 33.041C54.3913 33.0213 54.424 32.982 54.4546 32.9383C54.4786 32.8924 54.5048 32.8334 54.5048 32.7766L54.4917 32.2458V32.2437ZM57.3842 36.4158C57.2925 36.4901 57.2445 36.584 57.2445 36.7216C57.2445 36.785 57.2554 36.844 57.3078 36.8833C57.3383 36.927 57.3951 36.9532 57.4737 36.9532C57.5239 36.9532 57.5763 36.9313 57.6287 36.9073C57.6854 36.8833 57.7182 36.8374 57.7574 36.785C57.7749 36.7391 57.7946 36.6823 57.7946 36.6299L57.8011 36.3197C57.609 36.3197 57.4737 36.359 57.3842 36.418M57.3842 36.418C57.2925 36.4923 57.2445 36.5862 57.2445 36.7238C57.2445 36.7872 57.2554 36.8461 57.3078 36.8855C57.3383 36.9292 57.3951 36.9554 57.4737 36.9554C57.5239 36.9554 57.5763 36.9335 57.6287 36.9095C57.6854 36.8855 57.7182 36.8396 57.7574 36.7872C57.7749 36.7413 57.7946 36.6845 57.7946 36.6321L57.8011 36.3219C57.609 36.3219 57.4737 36.3612 57.3842 36.4202M57.3842 36.4202C57.2925 36.4945 57.2445 36.5884 57.2445 36.726C57.2445 36.7894 57.2554 36.8483 57.3078 36.8876C57.3383 36.9313 57.3951 36.9576 57.4737 36.9576C57.5239 36.9576 57.5763 36.9357 57.6287 36.9117C57.6854 36.8876 57.7182 36.8418 57.7574 36.7894C57.7749 36.7435 57.7946 36.6867 57.7946 36.6343L57.8011 36.3241C57.609 36.3241 57.4737 36.3634 57.3842 36.4224M57.3842 36.4224C57.2925 36.4966 57.2445 36.5906 57.2445 36.7282C57.2445 36.7915 57.2554 36.8505 57.3078 36.8898C57.3383 36.9335 57.3951 36.9597 57.4737 36.9597C57.5239 36.9597 57.5763 36.9379 57.6287 36.9139C57.6854 36.8898 57.7182 36.844 57.7574 36.7915C57.7749 36.7457 57.7946 36.6889 57.7946 36.6364L57.8011 36.3263C57.609 36.3263 57.4737 36.3656 57.3842 36.4246" fill="white"></path>
    <path fill-rule="evenodd" clip-rule="evenodd" d="M24.1046 27.213C23.9889 27.106 23.8579 26.8788 24.0238 26.7543C24.0828 26.7128 24.1526 26.7106 24.2181 26.7303C24.3709 26.7871 24.3076 26.9596 24.4059 26.9596C24.8097 26.857 24.3731 27.462 24.1046 27.213Z" fill="white"></path>
    <path fill-rule="evenodd" clip-rule="evenodd" d="M24.6547 29.9719C25.0455 30.02 24.7071 30.376 24.4277 30.4831C24.2923 30.5355 24.1614 30.4219 24.1788 30.2602C24.1788 30.2602 24.1788 30.2602 24.1788 30.2581C24.1832 30.2144 24.2006 30.1707 24.2312 30.1379C24.336 30.0265 24.5368 29.9719 24.6547 29.9719Z" fill="white"></path>
    <path fill-rule="evenodd" clip-rule="evenodd" d="M25.1524 24.8823C25.1589 24.902 25.1633 24.9216 25.1698 24.9413C25.1698 24.9413 25.1502 24.9369 25.148 24.9369C25.0694 24.902 25.0017 24.8473 24.9406 24.7905C24.8795 24.7338 24.8271 24.6682 24.7834 24.5961C24.7791 24.5896 24.7747 24.5808 24.7703 24.5743C24.7048 24.4126 24.7005 24.2379 24.7048 24.0348V23.8753C24.7048 23.6853 24.6983 23.4974 24.6284 23.3576C24.5193 23.1544 24.3599 23.0212 24.1744 22.9906C23.8382 22.9338 23.3951 23.0256 23.2313 23.3576C23.1724 23.4734 23.1702 23.6088 23.1768 23.7355C23.1811 23.8185 23.1768 23.9299 23.2401 23.9932C23.2772 24.0304 23.3317 24.0479 23.3841 24.0479C23.3841 24.0479 23.3929 24.0435 23.3972 24.0391C23.4016 24.0326 23.3754 23.9867 23.3732 23.9801C23.3099 23.8185 23.3143 23.6306 23.4125 23.4843C23.4998 23.3532 23.6374 23.2506 23.788 23.2069C23.9386 23.1632 24.1002 23.1763 24.2399 23.2506C24.3097 23.2877 24.3708 23.3379 24.4232 23.3969C24.5171 23.5061 24.5651 23.6459 24.587 23.7857C24.5913 23.8119 24.5935 23.8382 24.5957 23.8622C24.611 24.0173 24.5695 24.1658 24.5673 24.3187C24.5673 24.4148 24.5717 24.5088 24.5913 24.6027C24.6175 24.7206 24.6634 24.8364 24.7223 24.9413C24.7441 24.9806 24.766 25.0177 24.79 25.057C24.48 25.5005 24.039 25.566 23.6417 25.2471C23.5719 25.1947 23.5435 24.7862 23.6483 24.7163C23.6745 24.701 23.7378 24.7272 23.8142 24.7665C24.0761 24.8932 24.3337 24.8015 24.456 24.6049C24.456 24.5568 24.456 24.5153 24.48 24.4651C24.4734 24.4542 24.4298 24.5 24.4123 24.5153C24.3665 24.5546 24.3294 24.6027 24.2748 24.6289C24.2028 24.6617 24.1176 24.6791 24.0368 24.6748C23.9321 24.6682 23.8557 24.6202 23.7727 24.5612C23.6679 24.4891 23.561 24.369 23.4627 24.1767C23.4343 24.1702 23.3972 24.1724 23.3645 24.1483C23.3645 24.1818 23.3638 24.2015 23.3623 24.2073C23.3623 24.2313 23.3579 24.2554 23.3558 24.2772C23.3361 24.4148 23.3252 24.5524 23.3165 24.6901C23.3055 24.8233 23.2903 24.9522 23.2401 25.0767C23.2248 25.1138 23.2095 25.1488 23.192 25.1837C23.1702 25.2231 23.1462 25.2624 23.1156 25.2973C23.0545 25.3672 22.9781 25.3891 22.8886 25.3913C22.8231 25.3913 22.7642 25.3869 22.7009 25.3716C22.6681 25.365 22.6354 25.3607 22.6026 25.3607C22.5153 25.3607 22.4302 25.3891 22.3625 25.448C22.3363 25.4721 22.3123 25.5005 22.2926 25.5289C22.2817 25.5463 22.2533 25.5158 22.2446 25.5048C22.2228 25.4764 22.2053 25.4371 22.2162 25.4C22.2206 25.3869 22.225 25.376 22.2293 25.3629C22.2359 25.3454 22.2446 25.3279 22.2512 25.3082C22.2599 25.2733 22.273 25.2383 22.2861 25.2056C22.3057 25.1597 22.3254 25.116 22.3559 25.0789C22.3865 25.0374 22.4258 25.0112 22.4695 24.9871C22.5393 24.9522 22.6157 24.9303 22.6856 24.8998C22.9977 24.7687 22.9781 24.3362 22.9846 24.0588C22.989 23.9037 22.9934 23.7464 23.0174 23.5935C23.0458 23.4209 23.0982 23.1108 23.2379 22.9972C23.3405 22.9142 23.4671 22.8705 23.5937 22.8421C23.8971 22.7765 24.2268 22.7547 24.5127 22.8901C24.6743 22.9666 24.7463 23.2309 24.7878 23.3969C24.8184 23.5214 24.8336 23.6481 24.8555 23.7726C24.921 24.144 25.0388 24.5088 25.1436 24.8714" fill="white"></path>
    <path fill-rule="evenodd" clip-rule="evenodd" d="M25.8161 39.9283V44.6772H25.5149V41.1909C25.5149 40.9397 25.469 40.7103 25.3293 40.7103C25.2136 40.7103 25.1612 40.9004 25.1612 41.1843V44.6772H24.8098V41.1909C24.8098 40.9397 24.7574 40.7103 24.6176 40.7103C24.4998 40.7103 24.4496 40.9004 24.4496 41.1843V44.6772H24.085V41.1909C24.085 40.9397 24.0392 40.7103 23.9038 40.7103C23.7816 40.7103 23.727 40.9004 23.7314 41.1843V44.6772H23.3668V41.1909C23.3668 40.9397 23.3275 40.7103 23.1856 40.7103C23.0634 40.7103 23.0066 40.9004 23.0132 41.1843V44.6772H22.6617V41.1909C22.6617 40.9397 22.6158 40.7103 22.4805 40.7103C22.3452 40.7103 22.2949 40.9004 22.2949 41.1843V44.6772H22.0002V39.9283H25.8161Z" fill="white"></path>
    <path fill-rule="evenodd" clip-rule="evenodd" d="M27.0363 39.2446V39.2664C27.0363 39.4215 26.8682 39.5482 26.663 39.5482H21.1531C20.9501 39.5482 20.7864 39.4215 20.7864 39.2446C20.7864 39.0939 20.9545 38.965 21.1531 38.965H26.663C26.8638 38.965 27.0363 39.0939 27.0363 39.2446Z" fill="white"></path>
    <path fill-rule="evenodd" clip-rule="evenodd" d="M21.2514 30.2209C21.2208 30.3585 21.2797 30.494 21.2688 30.6338C21.2688 30.6447 21.2666 30.6578 21.2557 30.6644C21.2361 30.6775 21.199 30.6556 21.1815 30.6469C21.1553 30.6338 21.1335 30.6163 21.1138 30.5944C21.0723 30.5508 21.044 30.4962 21.02 30.4415C21.0156 30.4918 21.0243 30.5311 21.0309 30.5595C21.0396 30.5857 21.0112 30.6119 20.985 30.6032C20.7252 30.5158 20.7405 30.0352 20.8082 29.8758C20.8584 29.701 21.2164 29.5438 21.5264 29.6268C21.8015 29.6857 21.9237 30.5005 22.7751 30.2821C23.0392 30.21 23.2051 28.9496 23.2313 28.8469C23.2684 28.3489 23.3012 27.8203 23.347 27.3135C23.3863 26.7893 23.4627 26.2432 23.502 25.7495C23.5268 25.5645 23.6126 25.5056 23.7596 25.5726C24.2508 25.8128 24.7158 25.6381 24.9122 25.1794C25.1 25.3978 25.0781 25.3476 24.921 25.5988C24.6437 25.9854 24.6699 25.9854 24.3752 26.3699C24.2792 26.4725 24.1962 26.5686 24.074 26.6014C23.9473 26.6342 23.8404 26.6669 23.8164 26.8133C23.7771 27.047 23.9146 27.2676 24.1067 27.39C24.1766 27.4358 24.3381 27.7548 24.4101 27.8181C24.5302 27.9142 24.5237 28.0147 24.4603 28.1261C24.3752 28.2746 24.3054 28.4363 24.2071 28.5783C24.1635 28.6394 24.1133 28.7028 24.0478 28.7399C23.967 28.7858 23.8753 28.7814 23.788 28.788C23.7269 28.7923 23.6657 28.788 23.6046 28.7945C23.4715 28.8076 23.4496 28.7202 23.4649 28.6001C23.478 28.4647 23.5413 28.1152 23.5413 28.0759C23.5042 28.113 23.3055 28.7224 23.2335 28.8688C23.1767 29.0632 23.3689 29.0304 23.3885 29.1877C23.478 29.618 23.4453 30.1379 23.4649 30.0615C23.5042 29.7556 23.5304 29.4892 23.5304 29.3559C23.5457 29.0698 23.3317 28.788 23.895 28.9496C24.1569 29.0719 23.9342 29.3974 23.9015 29.5459C23.8447 29.8059 23.9714 30.0549 24.0063 30.3083C24.0216 30.4263 24.0281 30.5486 24.1154 30.6403C24.2792 30.8107 24.5629 30.601 24.7092 30.5027C24.7747 30.4437 24.8642 30.3782 24.9166 30.3083C24.9799 30.2559 25.0825 30.1139 25.1524 30.1095C25.2724 30.1073 25.3357 30.2297 25.3641 30.3323C25.4318 30.5835 25.4165 30.8675 25.3881 31.1253C25.3597 31.407 25.3008 31.6845 25.2659 31.9641C25.2659 31.9793 25.2615 31.9925 25.2615 32.0056C25.1742 32.7635 25.1021 33.5193 24.9799 34.2686C24.9341 34.5504 25.3292 34.6246 25.5344 34.6814C25.923 34.7863 26.3312 34.8343 26.7241 34.9304C26.8289 34.9567 26.9424 34.9872 27.021 35.0593C27.0297 35.0681 27.0385 35.0768 27.0472 35.0855C27.117 35.162 27.1454 35.2712 27.1454 35.3761C27.1454 35.4809 27.1192 35.5814 27.0909 35.6819C27.1236 35.5705 27.0821 35.4438 27.0057 35.3542C26.9293 35.2647 26.8202 35.2057 26.7132 35.1598C26.436 35.0419 26.1282 34.9938 25.8291 35.02C25.6697 35.0331 25.5737 35.1139 25.5344 35.2712C25.4929 35.4329 25.4907 35.5989 25.4907 35.7671C25.4951 36.1887 25.5016 36.6212 25.578 37.0406C25.6151 37.2546 25.6719 37.4665 25.7527 37.6697C25.8291 37.8575 25.971 38.0126 26.0299 38.207C26.0561 38.3141 26.0561 38.4648 25.8837 38.4757C25.4973 38.5347 24.8424 38.6133 24.6372 38.3861C24.4778 38.2179 24.528 37.9689 24.5106 37.7636C24.4909 37.5015 24.4669 37.2415 24.4669 36.9838C24.4669 36.5993 24.4603 36.2083 24.4603 35.8326C24.4603 35.2384 24.4276 34.7076 24.4167 34.1113C24.3839 33.6744 24.3839 33.2092 24.3839 32.7504C24.3839 32.5866 24.4014 32.4031 24.3708 32.1366C24.3446 32.3005 24.2355 36.1078 24.1853 37.9274C24.1656 38.4932 22.8449 38.6155 22.8973 38.5631C22.9475 38.5522 23.5129 38.2616 23.55 37.9689C23.609 37.449 23.6526 36.9248 23.6592 36.4158C23.7094 35.1467 23.5697 33.2288 23.55 34.2424C23.55 35.2384 23.4278 37.6959 23.3776 37.9121C23.3623 38.0454 23.2291 38.1065 23.1134 38.1328C22.9497 38.1721 22.7729 38.1721 22.6048 38.1611C22.4585 38.1524 22.3101 38.1328 22.166 38.1044C21.9783 38.0672 22.046 37.6937 22.0612 37.5735C22.1071 37.1825 22.1595 36.7937 22.1835 36.4005C22.2926 35.4132 22.1333 33.646 22.1333 32.0405C22.1333 31.4595 22.1136 30.3105 21.9106 30.1117C21.8844 30.0877 21.8517 30.0527 21.8124 30.0549C21.7818 30.0571 21.7644 30.0855 21.7513 30.1095C21.712 30.1882 21.6989 30.2777 21.6661 30.3607C21.6508 30.3979 21.6312 30.435 21.6006 30.4612C21.5788 30.4787 21.5351 30.5049 21.5177 30.4699C21.5089 30.4503 21.5024 30.4263 21.5024 30.4066C21.5024 30.3869 21.5024 30.3695 21.5024 30.3498C21.498 30.2886 21.4893 30.2253 21.4609 30.1707C21.4391 30.1248 21.3801 30.092 21.3299 30.1161C21.2928 30.1357 21.2754 30.1794 21.2666 30.2187C21.2666 30.2209 21.2666 30.2253 21.2666 30.2275" fill="white"></path>
    <path fill-rule="evenodd" clip-rule="evenodd" d="M26.9576 26.7849C26.9314 26.9138 26.9271 27.1322 27.1083 27.1322C27.2589 27.1322 27.3899 27.0274 27.5143 26.9575C27.5536 26.9356 27.2895 27.2633 26.9642 27.3091C26.6215 27.3397 26.532 26.3568 26.532 26.3262C26.5014 26.3655 26.532 27.5538 26.5014 27.7307C26.5014 28.0081 26.4097 27.6193 26.0844 27.6455C25.8552 27.6674 25.6435 27.7351 25.4885 27.9099C25.554 27.8989 25.6129 27.8705 25.6762 27.8487C25.7985 27.805 25.9273 27.7701 26.0582 27.7853C26.3115 27.8159 26.4228 28.0365 26.4512 28.2659C26.4577 28.3205 26.4599 28.3729 26.4599 28.4276C26.4599 28.4341 26.4534 28.5149 26.4599 28.5171C26.3704 28.4778 26.1587 28.4581 26.0997 28.5084C26.0124 28.5717 26.0124 28.6678 26.0561 28.7552C26.0888 28.8164 26.1347 28.8644 26.1739 28.9212C26.2482 29.0261 26.3027 29.1484 26.3486 29.2664C26.366 29.31 26.3813 29.3559 26.3944 29.3996C26.3988 29.4105 26.4294 29.5372 26.4294 29.5372C26.3311 29.5438 26.2307 29.5503 26.1325 29.5569C25.9447 29.5678 25.757 29.546 25.5693 29.5569C25.351 29.5722 25.1698 29.6705 24.9798 29.7666C24.8074 29.8518 24.0128 30.0243 24.0761 29.6464C24.1525 29.3406 24.1721 29.0239 24.2726 28.7137C24.3053 28.6307 24.3315 28.5521 24.3686 28.504C24.5171 28.3096 24.6961 28.1261 24.8052 27.9623C24.8794 27.8531 24.9537 27.7504 25.0104 27.6281C25.0672 27.5057 25.1043 27.3725 25.1436 27.2436C25.1654 27.1759 25.1894 27.1082 25.2047 27.0361C25.22 26.964 25.2265 26.8897 25.2331 26.8177C25.2396 26.7194 25.244 26.6189 25.2374 26.5184C25.2374 26.5075 25.2353 26.4966 25.2331 26.4878C25.2331 26.6036 24.9951 27.1584 24.9711 27.2327C24.9798 27.189 24.9668 27.1344 24.9602 27.0929C24.9406 26.9706 24.8903 26.8613 24.8249 26.7587C24.7987 26.7172 24.7703 26.6757 24.7375 26.6407C24.731 26.6342 24.6961 26.597 24.6961 26.6254C24.6961 26.6495 24.7179 26.6757 24.731 26.6953C24.7594 26.7412 24.7834 26.7893 24.803 26.8395C24.8576 26.988 24.8642 27.1475 24.8642 27.3048C24.8642 27.4271 24.8794 27.5909 24.7681 27.6718C24.6982 27.722 24.5629 27.722 24.4778 27.6827C24.3686 27.639 24.2726 27.4533 24.2726 27.3332C24.3424 27.4315 24.6764 27.687 24.7528 27.4752C24.7856 27.3878 24.7877 27.2917 24.7812 27.2021C24.7768 27.1169 24.7681 27.0252 24.7463 26.9444C24.7113 26.8198 24.6328 26.7237 24.4952 26.7172C24.4647 26.7172 24.4341 26.7237 24.4014 26.7237C24.373 26.7237 24.3446 26.7128 24.3315 26.6866C24.3206 26.6626 24.3228 26.6342 24.338 26.6123C24.3599 26.5839 24.3817 26.5577 24.4057 26.5293C24.4407 26.4878 24.4734 26.4441 24.5061 26.4004C24.5498 26.3415 24.5913 26.2781 24.6306 26.2148C24.6851 26.123 24.7441 26.0335 24.803 25.9417C24.8598 25.8216 25.0912 25.59 25.2069 25.5289C25.2505 25.4961 25.2833 25.5114 25.316 25.6031C25.4972 25.9767 25.8749 26.0225 26.1499 25.7386C26.2329 25.6621 26.3377 25.5114 26.4163 25.5092C26.5931 25.507 26.7786 25.7386 26.9183 25.8216C27.0275 25.9155 27.3418 26.158 27.4182 26.2301C27.4488 26.2606 27.4313 26.2694 27.4008 26.2738C27.3375 26.2803 27.2807 26.2934 27.224 26.3305C27.0755 26.4267 26.9838 26.608 26.9511 26.7783" fill="white"></path>
    <path fill-rule="evenodd" clip-rule="evenodd" d="M27.5559 27.8399C27.4009 28.2484 28.202 27.9361 27.6519 30.1335C27.6519 30.1335 27.056 32.2437 27.8659 34.7972C28.0252 35.2887 28.1082 36.0248 27.5821 36.2367C27.1455 36.4202 27.1411 37.9121 26.8857 38.6111C26.8158 38.5936 26.7438 38.5827 26.6674 38.5827H26.5386C26.7067 38.3359 26.7372 38.0366 26.7525 37.7483C26.7525 37.5168 26.7744 37.2852 26.7831 37.0537C26.7918 36.8593 26.8311 36.6364 26.7547 36.4508C26.6608 36.2236 26.1085 36.3962 25.9994 36.4071C26.0169 36.3896 26.1435 36.3241 26.2111 36.2913C26.3509 36.2214 26.5015 36.1777 26.6521 36.1362C27.0014 36.0423 27.4031 35.909 27.4424 35.4831C27.4576 35.2974 27.4031 35.1139 27.3659 34.9326C27.3048 34.6268 27.2503 34.3188 27.1957 34.013C27.1673 33.8557 27.1411 33.7006 27.1127 33.5434C27.0974 33.4625 27.0822 33.3817 27.0669 33.3031C27.0538 33.2332 27.021 33.148 27.021 33.0759C26.9315 32.6609 26.8813 32.2415 26.8922 31.8243C26.9315 31.1034 27.08 30.3411 27.2328 29.6486C27.2721 29.4629 27.3267 29.2816 27.3529 29.096C27.366 29.002 27.3725 28.9059 27.3659 28.8098C27.3572 28.7115 27.331 28.6263 27.2939 28.5346C27.2437 28.4079 27.1782 28.2899 27.1193 28.1654C27.0429 28.006 26.997 27.8203 27.0953 27.6608C27.1717 27.5341 27.2786 27.4227 27.3812 27.3179C27.4511 27.2458 27.5231 27.1759 27.5973 27.1082C27.6868 26.9858 27.8986 26.8548 27.9575 26.6888C28.0208 26.5533 27.9816 26.3567 27.868 26.2388C27.7065 26.099 27.5995 26.2017 27.4336 26.064C27.1564 25.8325 26.8682 25.5485 26.5517 25.4065C26.4906 25.3803 26.4251 25.3519 26.3574 25.3694C26.2919 25.3869 26.2439 25.448 26.2111 25.5048C26.1347 25.6337 25.9928 25.7102 25.8444 25.7102C25.7222 25.7102 25.6086 25.6512 25.5235 25.566C25.434 25.4743 25.3903 25.3629 25.3489 25.2427C25.3445 25.2318 25.3139 25.0527 25.3183 25.0505C25.4515 24.9893 25.4667 24.8801 25.5126 24.7556C25.5366 24.6901 25.5628 24.6245 25.6065 24.5699C25.6589 24.5022 25.768 24.5503 25.8007 24.6071C25.8902 24.7621 26.1326 24.7665 26.257 24.6136C26.4294 24.4935 26.4622 24.8255 26.4163 24.9697C26.4098 25.0024 26.3989 25.0265 26.3923 25.0614C26.436 25.0417 26.4884 24.9959 26.508 24.9697C26.6936 24.7359 26.6499 24.4454 26.5386 24.2379C26.3727 23.967 26.1609 23.836 25.8204 23.8513C25.696 23.8556 25.5781 23.8775 25.4733 23.9474C25.3423 24.0347 25.2681 24.1986 25.2201 24.3406C25.1546 24.2423 25.1153 24.1068 25.0956 24.0326C25.0018 23.6634 24.9887 23.3576 24.9254 23.1981C24.8664 23.0146 24.7529 22.8879 24.7071 22.8661L24.7136 22.5494C25.0607 22.3156 24.9843 21.8984 24.7769 21.7848C24.6263 21.6778 24.4648 21.8263 24.4648 21.8263C24.432 21.7761 24.3883 21.7346 24.3381 21.704C24.277 21.6647 24.2137 21.645 24.1395 21.6538C24.0718 21.6625 24.0085 21.6909 23.9496 21.7237C23.9387 21.7302 23.9299 21.7368 23.9212 21.7433C23.8863 21.728 23.8688 21.704 23.8622 21.6822C23.9277 21.6516 23.9758 21.5729 23.9758 21.5074C23.9779 21.3676 23.8884 21.3043 23.7946 21.3043C23.7007 21.3043 23.6068 21.3851 23.6068 21.5074C23.6068 21.5686 23.6614 21.6407 23.7291 21.6734C23.7378 21.7171 23.7204 21.7411 23.6985 21.7543C23.3318 21.5664 23.1964 21.8984 23.1964 21.8984C23.1964 21.8941 23.1571 21.8744 23.155 21.8722C23.0917 21.8351 23.0022 21.8285 22.9345 21.8569C22.8908 21.8744 22.8559 21.9006 22.8275 21.9377C22.7773 22.0033 22.7533 22.0906 22.7533 22.1715C22.7533 22.3156 22.786 22.4314 22.8952 22.5494C22.9148 22.5712 22.9454 22.6083 22.9585 22.6193L23.0152 22.995C22.9498 23.054 22.8624 23.3161 22.8537 23.5651C22.8428 23.9102 22.8297 24.2292 22.7446 24.4891C22.6179 24.7359 22.4804 24.7316 22.225 24.9609C21.9107 25.2427 21.2208 28.2812 21.1706 28.4931C21.1182 28.895 20.8432 29.345 20.6554 29.7076C20.2276 30.5726 21.0222 31.2367 20.8279 32.9317C20.7711 33.4298 20.603 36.9313 20.8803 37.4665C21.0025 37.7243 21.3343 37.5255 21.3933 37.7723C21.4217 37.8706 21.3169 38.3053 21.3933 38.5827H21.199C21.2099 38.4517 21.2121 38.3206 21.199 38.1917C21.1794 38.0148 21.1226 37.8881 20.9349 37.8488C20.8213 37.8226 20.6882 37.8597 20.5856 37.7964C20.4022 37.6828 20.3564 37.3267 20.3236 37.1345C20.2821 36.8811 20.2734 36.6233 20.2712 36.3678C20.2647 35.8894 20.3171 35.4132 20.3651 34.9392C20.4328 34.2729 20.4721 33.6023 20.4917 32.9317C20.4917 32.6631 20.4917 32.117 20.4219 31.7347C20.3651 31.5315 20.2669 31.11 20.2167 30.8915C19.935 29.7141 20.4219 29.2882 20.6729 28.6351C20.8585 28.1698 21.5374 25.5376 21.6029 25.3629C21.6705 25.1837 21.712 24.9828 21.8408 24.8342C21.9587 24.6988 22.1268 24.6245 22.2534 24.5C22.5939 24.1702 22.4913 23.5848 22.356 23.185C22.2621 22.9032 22.153 22.6542 22.153 22.3484C22.153 21.4091 22.9498 20.6358 23.8601 20.6358C24.7704 20.6358 25.5912 21.4091 25.5912 22.3484C25.5912 22.7263 25.4689 23.0693 25.2637 23.351C25.2594 23.3532 25.255 23.3554 25.2528 23.3576H25.2572C25.2572 23.3576 25.2615 23.3532 25.2637 23.351C25.4864 23.185 25.7615 23.0867 26.0583 23.0867C26.8027 23.0867 27.3921 23.6874 27.3921 24.4345C27.3921 24.7556 27.2786 25.0527 27.0887 25.2864C27.1717 25.3213 27.7851 25.957 27.8528 25.9832C28.0645 26.0466 28.3723 26.1427 28.4422 26.3546C28.6605 27.0798 27.7764 27.2633 27.5646 27.8399" fill="white"></path>
    <path fill-rule="evenodd" clip-rule="evenodd" d="M25.2522 23.351C25.2522 23.351 25.2502 23.3551 25.2461 23.3572H25.2419C25.2419 23.3572 25.2481 23.3531 25.2522 23.351Z" fill="white"></path>
    <path fill-rule="evenodd" clip-rule="evenodd" d="M25.2522 23.351C25.2522 23.351 25.2502 23.3551 25.2461 23.3572H25.2419C25.2419 23.3572 25.2481 23.3531 25.2522 23.351Z" fill="white"></path>
    <path d="M23.155 21.988C23.155 21.988 22.9257 21.8962 22.917 22.1496C22.9061 22.3178 23.072 22.5734 23.2314 22.6215H23.4606C23.4606 22.6215 23.2052 22.3986 23.1528 21.988" fill="white"></path>
    <path d="M23.7139 21.8395L23.81 22.6236H23.5982C23.5982 22.6236 23.5851 22.6127 23.5807 22.6105C23.5393 22.5778 23.5087 22.5341 23.4847 22.486C23.4498 22.4227 23.4148 22.355 23.3886 22.2851C23.3603 22.213 23.3428 22.1387 23.3603 22.0623C23.3734 22.0055 23.3995 21.9509 23.441 21.9072C23.4869 21.8591 23.5414 21.8329 23.6069 21.8307C23.6157 21.8307 23.6244 21.8307 23.6244 21.8307C23.6593 21.8307 23.6877 21.8351 23.7139 21.8395Z" fill="white"></path>
    <path fill-rule="evenodd" clip-rule="evenodd" d="M27.034 28.9518C27.1148 28.8426 27.1388 28.7071 27.1061 28.5739C27.0755 28.4538 27.0078 28.3467 26.9358 28.2484C26.8834 28.1763 26.8267 28.1043 26.7677 28.0365C26.7372 28.0016 26.7044 27.9666 26.6673 27.9404C26.6629 27.9382 26.6564 27.9339 26.6564 27.9339C26.6564 27.9339 26.6324 27.9448 26.6302 27.9557C26.604 28.0234 26.6149 28.0999 26.6346 28.1676C26.6542 28.2375 26.6826 28.303 26.6935 28.3751C26.7022 28.4385 26.6935 28.5105 26.6433 28.5499C26.6215 28.5652 26.5974 28.5739 26.5712 28.5783C26.4883 28.5979 26.3988 28.5936 26.3224 28.6307C26.3158 28.6351 26.3071 28.6394 26.3027 28.646C26.2831 28.6678 26.3006 28.705 26.3224 28.7224C26.4053 28.7945 26.5407 28.7639 26.6324 28.8229C26.5712 28.8273 26.5101 28.8295 26.449 28.8338C26.449 28.8775 26.4817 28.9168 26.5167 28.9452C26.5887 29.0042 26.6804 29.0413 26.7721 29.0479C26.8681 29.0566 26.9598 29.0108 27.0319 28.9518" fill="white"></path>
    <path fill-rule="evenodd" clip-rule="evenodd" d="M27.6758 26.3327C27.4837 26.3262 27.4968 26.514 27.4008 26.4682C27.034 26.2388 27.2283 26.9575 27.6082 26.8198C27.6758 26.7958 27.7479 26.7237 27.7915 26.6691C27.8548 26.5927 27.8701 26.4965 27.8199 26.407C27.7894 26.3546 27.7348 26.3305 27.6758 26.3305" fill="white"></path>
    <path d="M24.4823 21.9006C24.4823 21.9006 24.7071 21.7674 24.7704 22.0339C24.8075 22.1933 24.6547 22.4664 24.4823 22.5516L24.3098 22.5625C24.3098 22.5625 24.515 22.32 24.4823 21.9028" fill="white"></path>
    <path d="M23.9126 21.8263L23.9694 22.5952L24.1571 22.5756L24.1767 22.5494C24.2466 22.4598 24.2815 22.3419 24.3143 22.2348C24.3514 22.1016 24.3339 21.9487 24.2138 21.8613C24.2008 21.8526 24.1855 21.8438 24.1702 21.8373C24.096 21.8045 24.0065 21.8045 23.9279 21.8242C23.9235 21.8242 23.917 21.8263 23.9126 21.8285" fill="white"></path>
    <path fill-rule="evenodd" clip-rule="evenodd" d="M21.3169 32.1432C21.3562 32.2524 21.4064 32.4053 21.4523 32.5276C21.509 32.6783 21.5658 32.8444 21.6094 32.9732C21.6989 33.2375 21.7491 33.3511 21.7906 33.6264C21.8321 33.906 21.8561 34.1856 21.8714 34.4674C21.8932 34.7994 21.9216 35.1314 21.9238 35.4634C21.9238 35.6163 21.9216 35.7714 21.9041 35.9243C21.8845 36.0925 21.8692 36.2673 21.795 36.4224C21.7295 36.5622 21.6247 36.6845 21.509 36.785C21.4435 36.8418 21.3715 36.8898 21.3104 36.9488C21.223 37.034 21.1445 37.1345 21.0877 37.2437C21.0659 37.2852 21.0331 37.3486 21.055 37.3966C20.9895 37.2721 21.0113 37.1345 21.0942 37.0253C21.1663 36.9292 21.2667 36.8549 21.3584 36.7806C21.461 36.6998 21.5505 36.6102 21.6203 36.4966C21.8168 36.1734 21.795 35.7671 21.7841 35.4023C21.7666 34.7994 21.2711 32.2 21.2711 32.2C21.2711 32.2 21.2361 32.0252 21.2471 32.023C21.2711 32.0187 21.3125 32.1388 21.3125 32.1388" fill="white"></path>
  </g>
  <defs>
    <clipPath id="clip0_1106_4306">
      <rect width="79" height="88" fill="white"></rect>
    </clipPath>
  </defs>
</svg>
